<svg width="600" height="410" viewBox="0 0 600 410" fill="none" xmlns="http://www.w3.org/2000/svg">
<g clip-path="url(#clip0_790_2564)">
<rect width="600" height="410" fill="#F3F3F4"/>
<g opacity="0.2">
<circle opacity="0.2" cx="200.5" cy="197.5" r="100.5" fill="#FB3131"/>
<circle opacity="0.2" cx="200.5" cy="197.5" r="59.3636" fill="#FB3131"/>
</g>
<g filter="url(#filter0_dddd_790_2564)">
<rect x="37" y="33" width="89" height="64" rx="5" fill="#FFD9D7"/>
<rect x="38.5" y="34.5" width="86" height="61" rx="3.5" stroke="#FB3131" stroke-width="3" stroke-linejoin="round"/>
</g>
<g filter="url(#filter1_dddd_790_2564)">
<rect x="37" y="117" width="89" height="64" rx="5" fill="#FFD9D7"/>
<rect x="38.5" y="118.5" width="86" height="61" rx="3.5" stroke="#FB3131" stroke-width="3" stroke-linejoin="round"/>
</g>
<rect x="38.5" y="307.5" width="86" height="61" rx="3.5" fill="#E1E2EA" stroke="#6D6A6A" stroke-width="3" stroke-linejoin="round"/>
<rect x="38.5" y="226.5" width="86" height="61" rx="3.5" fill="#E1E2EA" stroke="#6D6A6A" stroke-width="3" stroke-linejoin="round"/>
<rect x="280.5" y="307.5" width="86" height="61" rx="3.5" fill="#E1E2EA" stroke="#6D6A6A" stroke-width="3" stroke-linejoin="round"/>
<rect x="280.5" y="226.5" width="86" height="61" rx="3.5" fill="#E1E2EA" stroke="#6D6A6A" stroke-width="3" stroke-linejoin="round"/>
<rect x="392.5" y="307.5" width="86" height="61" rx="3.5" fill="#E1E2EA" stroke="#6D6A6A" stroke-width="3" stroke-linejoin="round"/>
<rect x="481.5" y="206.5" width="86" height="61" rx="3.5" fill="#E1E2EA" stroke="#6D6A6A" stroke-width="3" stroke-linejoin="round"/>
<rect x="481.5" y="127.5" width="86" height="61" rx="3.5" fill="#E1E2EA" stroke="#6D6A6A" stroke-width="3" stroke-linejoin="round"/>
<rect x="392.5" y="34.5" width="86" height="61" rx="3.5" fill="#E1E2EA" stroke="#6D6A6A" stroke-width="3" stroke-linejoin="round"/>
<rect x="280.5" y="34.5" width="86" height="61" rx="3.5" fill="#E1E2EA" stroke="#6D6A6A" stroke-width="3" stroke-linejoin="round"/>
<path d="M203.473 125.145L204.966 125.002V125.002L203.473 125.145ZM204.568 147.64C205.207 148.167 206.152 148.076 206.679 147.437L215.269 137.022C215.796 136.383 215.705 135.438 215.066 134.911C214.427 134.384 213.482 134.474 212.954 135.113L205.319 144.371L196.062 136.736C195.423 136.209 194.477 136.3 193.95 136.939C193.423 137.578 193.514 138.523 194.153 139.05L204.568 147.64ZM141 73.8154L141.149 75.308C142.193 75.2038 143.233 75.1292 144.268 75.0836L144.202 73.585L144.136 72.0865C143.046 72.1346 141.95 72.2132 140.851 72.3228L141 73.8154ZM150.619 73.6612L150.517 75.1577C152.612 75.3006 154.68 75.5614 156.714 75.934L156.984 74.4586L157.254 72.9832C155.111 72.5903 152.93 72.3153 150.721 72.1646L150.619 73.6612ZM163.218 75.9704L162.782 77.4058C164.784 78.0132 166.742 78.7314 168.647 79.554L169.242 78.1768L169.836 76.7997C167.828 75.9326 165.764 75.1754 163.653 74.535L163.218 75.9704ZM174.98 81.0468L174.234 82.3486C176.045 83.3852 177.794 84.5216 179.474 85.7511L180.36 84.5408L181.246 83.3304C179.476 82.0349 177.633 80.8374 175.725 79.7451L174.98 81.0468ZM185.317 88.6135L184.301 89.7175C185.833 91.1267 187.287 92.6223 188.655 94.1975L189.788 93.2139L190.92 92.2303C189.479 90.5703 187.946 88.9944 186.332 87.5096L185.317 88.6135ZM193.716 98.2861L192.481 99.1365C193.657 100.846 194.742 102.627 195.726 104.473L197.049 103.768L198.373 103.062C197.335 101.116 196.192 99.238 194.952 97.4358L193.716 98.2861ZM199.741 109.59L198.347 110.141C199.106 112.063 199.763 114.042 200.31 116.07L201.758 115.68L203.207 115.289C202.63 113.151 201.938 111.065 201.136 109.038L199.741 109.59ZM203.078 121.959L201.595 122.185C201.751 123.21 201.879 124.244 201.98 125.289L203.473 125.145L204.966 125.002C204.86 123.902 204.725 122.813 204.561 121.734L203.078 121.959ZM203.473 125.145L201.98 125.289L202.236 127.956L203.729 127.813L205.222 127.669L204.966 125.002L203.473 125.145ZM204.241 133.147L202.748 133.29L203.26 138.625L204.754 138.481L206.247 138.338L205.734 133.003L204.241 133.147ZM205.266 143.816L203.773 143.959L204.029 146.626L205.522 146.483L207.015 146.339L206.759 143.672L205.266 143.816ZM203.473 125.145L204.966 125.002V125.002L203.473 125.145ZM204.568 147.64C205.207 148.167 206.152 148.076 206.679 147.437L215.269 137.022C215.796 136.383 215.705 135.438 215.066 134.911C214.427 134.384 213.482 134.474 212.954 135.113L205.319 144.371L196.062 136.736C195.423 136.209 194.477 136.3 193.95 136.939C193.423 137.578 193.514 138.523 194.153 139.05L204.568 147.64ZM141 73.8154L141.149 75.308C142.193 75.2038 143.233 75.1292 144.268 75.0836L144.202 73.585L144.136 72.0865C143.046 72.1346 141.95 72.2132 140.851 72.3228L141 73.8154ZM150.619 73.6612L150.517 75.1577C152.612 75.3006 154.68 75.5614 156.714 75.934L156.984 74.4586L157.254 72.9832C155.111 72.5903 152.93 72.3153 150.721 72.1646L150.619 73.6612ZM163.218 75.9704L162.782 77.4058C164.784 78.0132 166.742 78.7314 168.647 79.554L169.242 78.1768L169.836 76.7997C167.828 75.9326 165.764 75.1754 163.653 74.535L163.218 75.9704ZM174.98 81.0468L174.234 82.3486C176.045 83.3852 177.794 84.5216 179.474 85.7511L180.36 84.5408L181.246 83.3304C179.476 82.0349 177.633 80.8374 175.725 79.7451L174.98 81.0468ZM185.317 88.6135L184.301 89.7175C185.833 91.1267 187.287 92.6223 188.655 94.1975L189.788 93.2139L190.92 92.2303C189.479 90.5703 187.946 88.9944 186.332 87.5096L185.317 88.6135ZM193.716 98.2861L192.481 99.1365C193.657 100.846 194.742 102.627 195.726 104.473L197.049 103.768L198.373 103.062C197.335 101.116 196.192 99.238 194.952 97.4358L193.716 98.2861ZM199.741 109.59L198.347 110.141C199.106 112.063 199.763 114.042 200.31 116.07L201.758 115.68L203.207 115.289C202.63 113.151 201.938 111.065 201.136 109.038L199.741 109.59ZM203.078 121.959L201.595 122.185C201.751 123.21 201.879 124.244 201.98 125.289L203.473 125.145L204.966 125.002C204.86 123.902 204.725 122.813 204.561 121.734L203.078 121.959ZM203.473 125.145L201.98 125.289L202.236 127.956L203.729 127.813L205.222 127.669L204.966 125.002L203.473 125.145ZM204.241 133.147L202.748 133.29L203.26 138.625L204.754 138.481L206.247 138.338L205.734 133.003L204.241 133.147ZM205.266 143.816L203.773 143.959L204.029 146.626L205.522 146.483L207.015 146.339L206.759 143.672L205.266 143.816Z" fill="#555970"/>
<path d="M197.973 270.045L196.483 270.221V270.221L197.973 270.045ZM196.381 247.58C195.731 247.067 194.788 247.179 194.275 247.83L185.917 258.432C185.405 259.082 185.516 260.025 186.167 260.538C186.817 261.051 187.761 260.939 188.273 260.289L195.702 250.865L205.126 258.294C205.777 258.807 206.72 258.695 207.233 258.044C207.746 257.394 207.634 256.451 206.983 255.938L196.381 247.58ZM261.564 319.982L261.383 318.493C260.341 318.621 259.303 318.718 258.269 318.787L258.368 320.283L258.467 321.78C259.556 321.708 260.65 321.605 261.746 321.471L261.564 319.982ZM251.952 320.349L252.021 318.851C249.922 318.754 247.849 318.539 245.808 318.211L245.57 319.692L245.332 321.174C247.484 321.519 249.67 321.746 251.883 321.848L251.952 320.349ZM239.305 318.319L239.708 316.874C237.693 316.311 235.72 315.636 233.797 314.856L233.233 316.246L232.669 317.636C234.697 318.458 236.777 319.17 238.901 319.763L239.305 318.319ZM227.433 313.503L228.15 312.185C226.317 311.189 224.543 310.092 222.836 308.9L221.977 310.129L221.118 311.359C222.916 312.615 224.785 313.771 226.717 314.821L227.433 313.503ZM216.932 306.167L217.923 305.041C216.36 303.666 214.873 302.203 213.47 300.658L212.36 301.666L211.249 302.675C212.727 304.302 214.294 305.844 215.941 307.293L216.932 306.167ZM208.32 296.682L209.537 295.805C208.323 294.121 207.2 292.365 206.175 290.541L204.867 291.276L203.559 292.01C204.64 293.933 205.824 295.785 207.104 297.56L208.32 296.682ZM202.047 285.514L203.429 284.932C202.627 283.027 201.927 281.064 201.335 279.048L199.896 279.471L198.457 279.893C199.08 282.018 199.819 284.088 200.665 286.097L202.047 285.514ZM198.438 273.221L199.916 272.963C199.737 271.942 199.586 270.911 199.463 269.869L197.973 270.045L196.483 270.221C196.613 271.318 196.773 272.405 196.961 273.48L198.438 273.221ZM197.973 270.045L199.463 269.869L199.148 267.208L197.658 267.384L196.168 267.56L196.483 270.221L197.973 270.045ZM197.028 262.062L198.518 261.886L197.887 256.564L196.398 256.741L194.908 256.917L195.538 262.239L197.028 262.062ZM195.768 251.419L197.257 251.243L196.942 248.582L195.453 248.758L193.963 248.935L194.278 251.595L195.768 251.419ZM197.973 270.045L196.483 270.221V270.221L197.973 270.045ZM196.381 247.58C195.731 247.067 194.788 247.179 194.275 247.83L185.917 258.432C185.405 259.082 185.516 260.025 186.167 260.538C186.817 261.051 187.761 260.939 188.273 260.289L195.702 250.865L205.126 258.294C205.777 258.807 206.72 258.695 207.233 258.044C207.746 257.394 207.634 256.451 206.983 255.938L196.381 247.58ZM261.564 319.982L261.383 318.493C260.341 318.621 259.303 318.718 258.269 318.787L258.368 320.283L258.467 321.78C259.556 321.708 260.65 321.605 261.746 321.471L261.564 319.982ZM251.952 320.349L252.021 318.851C249.922 318.754 247.849 318.539 245.808 318.211L245.57 319.692L245.332 321.174C247.484 321.519 249.67 321.746 251.883 321.848L251.952 320.349ZM239.305 318.319L239.708 316.874C237.693 316.311 235.72 315.636 233.797 314.856L233.233 316.246L232.669 317.636C234.697 318.458 236.777 319.17 238.901 319.763L239.305 318.319ZM227.433 313.503L228.15 312.185C226.317 311.189 224.543 310.092 222.836 308.9L221.977 310.129L221.118 311.359C222.916 312.615 224.785 313.771 226.717 314.821L227.433 313.503ZM216.932 306.167L217.923 305.041C216.36 303.666 214.873 302.203 213.47 300.658L212.36 301.666L211.249 302.675C212.727 304.302 214.294 305.844 215.941 307.293L216.932 306.167ZM208.32 296.682L209.537 295.805C208.323 294.121 207.2 292.365 206.175 290.541L204.867 291.276L203.559 292.01C204.64 293.933 205.824 295.785 207.104 297.56L208.32 296.682ZM202.047 285.514L203.429 284.932C202.627 283.027 201.927 281.064 201.335 279.048L199.896 279.471L198.457 279.893C199.08 282.018 199.819 284.088 200.665 286.097L202.047 285.514ZM198.438 273.221L199.916 272.963C199.737 271.942 199.586 270.911 199.463 269.869L197.973 270.045L196.483 270.221C196.613 271.318 196.773 272.405 196.961 273.48L198.438 273.221ZM197.973 270.045L199.463 269.869L199.148 267.208L197.658 267.384L196.168 267.56L196.483 270.221L197.973 270.045ZM197.028 262.062L198.518 261.886L197.887 256.564L196.398 256.741L194.908 256.917L195.538 262.239L197.028 262.062ZM195.768 251.419L197.257 251.243L196.942 248.582L195.453 248.758L193.963 248.935L194.278 251.595L195.768 251.419Z" fill="#555970"/>
<path d="M280.678 185.608L281.396 186.925V186.925L280.678 185.608ZM260.419 195.446C260.185 196.24 260.64 197.074 261.434 197.308L274.385 201.12C275.18 201.354 276.014 200.899 276.248 200.104C276.482 199.31 276.027 198.476 275.232 198.242L263.72 194.854L267.108 183.342C267.342 182.547 266.888 181.713 266.093 181.48C265.298 181.246 264.464 181.7 264.23 182.495L260.419 195.446ZM303.362 108L302.048 108.723C302.554 109.642 303.031 110.57 303.479 111.504L304.831 110.855L306.184 110.205C305.711 109.221 305.209 108.245 304.677 107.277L303.362 108ZM307.28 116.786L305.864 117.279C306.555 119.263 307.127 121.268 307.582 123.284L309.046 122.953L310.509 122.623C310.028 120.497 309.425 118.383 308.697 116.292L307.28 116.786ZM310.102 129.28L308.611 129.443C308.838 131.523 308.946 133.605 308.938 135.68L310.438 135.687L311.938 135.693C311.947 133.505 311.833 131.31 311.593 129.117L310.102 129.28ZM310.051 142.091L308.561 141.916C308.318 143.988 307.96 146.043 307.488 148.071L308.949 148.411L310.41 148.75C310.907 146.614 311.285 144.449 311.541 142.265L310.051 142.091ZM307.149 154.568L305.735 154.068C305.041 156.03 304.236 157.954 303.324 159.831L304.674 160.487L306.023 161.142C306.984 159.164 307.832 157.136 308.563 155.069L307.149 154.568ZM301.551 166.091L300.284 165.288C299.173 167.041 297.961 168.738 296.649 170.368L297.818 171.308L298.986 172.249C300.369 170.53 301.647 168.742 302.818 166.893L301.551 166.091ZM293.52 176.07L292.465 175.003C290.995 176.457 289.434 177.838 287.783 179.137L288.711 180.316L289.638 181.494C291.379 180.125 293.025 178.669 294.575 177.136L293.52 176.07ZM283.453 183.994L282.663 182.719C281.782 183.265 280.881 183.789 279.96 184.291L280.678 185.608L281.396 186.925C282.366 186.396 283.315 185.844 284.243 185.269L283.453 183.994ZM280.678 185.608L279.96 184.291L277.607 185.574L278.325 186.891L279.043 188.208L281.396 186.925L280.678 185.608ZM273.62 189.456L272.902 188.139L268.197 190.704L268.915 192.021L269.633 193.338L274.338 190.773L273.62 189.456ZM264.21 194.587L263.492 193.27L261.14 194.552L261.858 195.869L262.576 197.186L264.928 195.904L264.21 194.587ZM280.678 185.608L281.396 186.925V186.925L280.678 185.608ZM260.419 195.446C260.185 196.24 260.64 197.074 261.434 197.308L274.385 201.12C275.18 201.354 276.014 200.899 276.248 200.104C276.482 199.31 276.027 198.476 275.232 198.242L263.72 194.854L267.108 183.342C267.342 182.547 266.888 181.713 266.093 181.48C265.298 181.246 264.464 181.7 264.23 182.495L260.419 195.446ZM303.362 108L302.048 108.723C302.554 109.642 303.031 110.57 303.479 111.504L304.831 110.855L306.184 110.205C305.711 109.221 305.209 108.245 304.677 107.277L303.362 108ZM307.28 116.786L305.864 117.279C306.555 119.263 307.127 121.268 307.582 123.284L309.046 122.953L310.509 122.623C310.028 120.497 309.425 118.383 308.697 116.292L307.28 116.786ZM310.102 129.28L308.611 129.443C308.838 131.523 308.946 133.605 308.938 135.68L310.438 135.687L311.938 135.693C311.947 133.505 311.833 131.31 311.593 129.117L310.102 129.28ZM310.051 142.091L308.561 141.916C308.318 143.988 307.96 146.043 307.488 148.071L308.949 148.411L310.41 148.75C310.907 146.614 311.285 144.449 311.541 142.265L310.051 142.091ZM307.149 154.568L305.735 154.068C305.041 156.03 304.236 157.954 303.324 159.831L304.674 160.487L306.023 161.142C306.984 159.164 307.832 157.136 308.563 155.069L307.149 154.568ZM301.551 166.091L300.284 165.288C299.173 167.041 297.961 168.738 296.649 170.368L297.818 171.308L298.986 172.249C300.369 170.53 301.647 168.742 302.818 166.893L301.551 166.091ZM293.52 176.07L292.465 175.003C290.995 176.457 289.434 177.838 287.783 179.137L288.711 180.316L289.638 181.494C291.379 180.125 293.025 178.669 294.575 177.136L293.52 176.07ZM283.453 183.994L282.663 182.719C281.782 183.265 280.881 183.789 279.96 184.291L280.678 185.608L281.396 186.925C282.366 186.396 283.315 185.844 284.243 185.269L283.453 183.994ZM280.678 185.608L279.96 184.291L277.607 185.574L278.325 186.891L279.043 188.208L281.396 186.925L280.678 185.608ZM273.62 189.456L272.902 188.139L268.197 190.704L268.915 192.021L269.633 193.338L274.338 190.773L273.62 189.456ZM264.21 194.587L263.492 193.27L261.14 194.552L261.858 195.869L262.576 197.186L264.928 195.904L264.21 194.587Z" fill="#555970"/>
<mask id="mask0_790_2564" style="mask-type:alpha" maskUnits="userSpaceOnUse" x="147" y="136" width="105" height="119">
<rect x="147" y="136" width="105" height="118.343" fill="#D9D9D9"/>
</mask>
<g mask="url(#mask0_790_2564)">
<path d="M167.344 228.208C165.667 228.208 164.263 227.571 163.133 226.298C162.003 225.024 161.438 223.442 161.438 221.552V169.53C161.438 167.64 162.112 165.935 163.461 164.414C164.81 162.894 166.323 162.134 168 162.134H188.453L197.203 171.996H231C232.24 171.996 233.333 172.304 234.281 172.92C235.229 173.537 235.995 174.379 236.578 175.447H196L187.25 165.585H168C166.979 165.585 166.141 165.955 165.484 166.695C164.828 167.435 164.5 168.38 164.5 169.53V220.812C164.5 221.716 164.701 222.456 165.102 223.031C165.503 223.606 166.031 224.099 166.688 224.51L176.422 187.775H246.203L236.688 223.524C236.323 224.921 235.612 226.051 234.555 226.914C233.497 227.777 232.313 228.208 231 228.208H167.344ZM169.859 224.757H233.188L242.047 191.226H178.719L169.859 224.757Z" fill="#FB3131"/>
</g>
</g>
<defs>
<filter id="filter0_dddd_790_2564" x="19" y="30" width="125" height="129" filterUnits="userSpaceOnUse" color-interpolation-filters="sRGB">
<feFlood flood-opacity="0" result="BackgroundImageFix"/>
<feColorMatrix in="SourceAlpha" type="matrix" values="0 0 0 0 0 0 0 0 0 0 0 0 0 0 0 0 0 0 127 0" result="hardAlpha"/>
<feOffset dy="3"/>
<feGaussianBlur stdDeviation="3"/>
<feColorMatrix type="matrix" values="0 0 0 0 0.984314 0 0 0 0 0.192157 0 0 0 0 0.192157 0 0 0 0.1 0"/>
<feBlend mode="normal" in2="BackgroundImageFix" result="effect1_dropShadow_790_2564"/>
<feColorMatrix in="SourceAlpha" type="matrix" values="0 0 0 0 0 0 0 0 0 0 0 0 0 0 0 0 0 0 127 0" result="hardAlpha"/>
<feOffset dy="11"/>
<feGaussianBlur stdDeviation="5.5"/>
<feColorMatrix type="matrix" values="0 0 0 0 0.984314 0 0 0 0 0.192157 0 0 0 0 0.192157 0 0 0 0.09 0"/>
<feBlend mode="normal" in2="effect1_dropShadow_790_2564" result="effect2_dropShadow_790_2564"/>
<feColorMatrix in="SourceAlpha" type="matrix" values="0 0 0 0 0 0 0 0 0 0 0 0 0 0 0 0 0 0 127 0" result="hardAlpha"/>
<feOffset dy="25"/>
<feGaussianBlur stdDeviation="7.5"/>
<feColorMatrix type="matrix" values="0 0 0 0 0.984314 0 0 0 0 0.192157 0 0 0 0 0.192157 0 0 0 0.05 0"/>
<feBlend mode="normal" in2="effect2_dropShadow_790_2564" result="effect3_dropShadow_790_2564"/>
<feColorMatrix in="SourceAlpha" type="matrix" values="0 0 0 0 0 0 0 0 0 0 0 0 0 0 0 0 0 0 127 0" result="hardAlpha"/>
<feOffset dy="44"/>
<feGaussianBlur stdDeviation="9"/>
<feColorMatrix type="matrix" values="0 0 0 0 0.984314 0 0 0 0 0.192157 0 0 0 0 0.192157 0 0 0 0.01 0"/>
<feBlend mode="normal" in2="effect3_dropShadow_790_2564" result="effect4_dropShadow_790_2564"/>
<feBlend mode="normal" in="SourceGraphic" in2="effect4_dropShadow_790_2564" result="shape"/>
</filter>
<filter id="filter1_dddd_790_2564" x="19" y="114" width="125" height="129" filterUnits="userSpaceOnUse" color-interpolation-filters="sRGB">
<feFlood flood-opacity="0" result="BackgroundImageFix"/>
<feColorMatrix in="SourceAlpha" type="matrix" values="0 0 0 0 0 0 0 0 0 0 0 0 0 0 0 0 0 0 127 0" result="hardAlpha"/>
<feOffset dy="3"/>
<feGaussianBlur stdDeviation="3"/>
<feColorMatrix type="matrix" values="0 0 0 0 0.984314 0 0 0 0 0.192157 0 0 0 0 0.192157 0 0 0 0.1 0"/>
<feBlend mode="normal" in2="BackgroundImageFix" result="effect1_dropShadow_790_2564"/>
<feColorMatrix in="SourceAlpha" type="matrix" values="0 0 0 0 0 0 0 0 0 0 0 0 0 0 0 0 0 0 127 0" result="hardAlpha"/>
<feOffset dy="11"/>
<feGaussianBlur stdDeviation="5.5"/>
<feColorMatrix type="matrix" values="0 0 0 0 0.984314 0 0 0 0 0.192157 0 0 0 0 0.192157 0 0 0 0.09 0"/>
<feBlend mode="normal" in2="effect1_dropShadow_790_2564" result="effect2_dropShadow_790_2564"/>
<feColorMatrix in="SourceAlpha" type="matrix" values="0 0 0 0 0 0 0 0 0 0 0 0 0 0 0 0 0 0 127 0" result="hardAlpha"/>
<feOffset dy="25"/>
<feGaussianBlur stdDeviation="7.5"/>
<feColorMatrix type="matrix" values="0 0 0 0 0.984314 0 0 0 0 0.192157 0 0 0 0 0.192157 0 0 0 0.05 0"/>
<feBlend mode="normal" in2="effect2_dropShadow_790_2564" result="effect3_dropShadow_790_2564"/>
<feColorMatrix in="SourceAlpha" type="matrix" values="0 0 0 0 0 0 0 0 0 0 0 0 0 0 0 0 0 0 127 0" result="hardAlpha"/>
<feOffset dy="44"/>
<feGaussianBlur stdDeviation="9"/>
<feColorMatrix type="matrix" values="0 0 0 0 0.984314 0 0 0 0 0.192157 0 0 0 0 0.192157 0 0 0 0.01 0"/>
<feBlend mode="normal" in2="effect3_dropShadow_790_2564" result="effect4_dropShadow_790_2564"/>
<feBlend mode="normal" in="SourceGraphic" in2="effect4_dropShadow_790_2564" result="shape"/>
</filter>
<clipPath id="clip0_790_2564">
<rect width="600" height="410" fill="white"/>
</clipPath>
</defs>
</svg>
