<svg width="114" height="154" viewBox="0 0 114 154" fill="none" xmlns="http://www.w3.org/2000/svg">
<path d="M38.0776 87.7755L1 65.9048L1.00007 22.8575L38.2485 1.15771L75.2419 22.7714L75.2419 65.8189L38.1644 87.6897L38.1644 44.6422M75.2419 22.7714L38.1644 44.6422M38.1644 44.6422L1.00007 22.8575" stroke="#F7761E" stroke-width="2" stroke-linecap="round"/>
<path d="M38.1641 87.987L38.1641 131.034L75.3284 152.819L112.406 130.948L112.406 87.9009M75.3284 109.772L75.3284 152.819" stroke="#F7761E" stroke-width="2" stroke-linecap="round"/>
<path d="M75.2417 109.693L38.1641 87.8221L38.1641 44.7747L75.4125 23.0749L112.406 44.6887L112.406 87.7362M112.406 44.6887L75.3284 66.5595M75.3284 66.5595L75.3284 109.607M75.3284 66.5595L38.1641 44.7747" stroke="#F7761E" stroke-width="2" stroke-linecap="round"/>
<path d="M38.1644 87.9134L38.1644 130.961M1.00007 66.1287L1 109.176L38.0776 131.047" stroke="#F7761E" stroke-width="2" stroke-linecap="round"/>
</svg>
