<svg width="644" height="487" viewBox="0 0 644 487" fill="none" xmlns="http://www.w3.org/2000/svg">
<path d="M639.283 262.568C638.371 263.459 637.305 264.202 636.264 264.94C608.405 284.643 580.532 304.333 552.672 324.032C508.052 355.582 463.437 387.137 418.823 418.691C404.68 428.69 390.549 438.698 376.405 448.689C374.937 449.724 373.482 450.801 371.905 451.642C365.669 454.974 359.395 454.973 353.172 451.55C352.164 450.996 351.213 450.333 350.275 449.668C327.54 433.599 304.812 417.526 282.09 401.447C281.062 400.719 279.939 400.085 279.013 398.89C279.671 398.321 280.182 397.793 280.775 397.37C284.113 394.977 287.49 392.643 290.796 390.216C292.347 389.082 293.885 387.893 295.212 386.522C296.355 385.342 297.217 383.884 298.161 382.52C298.576 381.915 298.895 381.239 299.374 380.387C321.043 395.626 342.443 410.863 363.882 425.948C364.578 425.635 365.089 425.496 365.491 425.208C386.655 410.256 407.807 395.291 428.959 380.323C429.482 379.953 429.967 379.522 430.503 379.088C429.859 372.152 428.665 365.483 427.9 359.271C426.993 357.464 425.787 356.711 424.638 355.897C422.123 354.117 419.602 352.352 417.094 350.567C416.264 349.976 415.466 349.341 414.624 348.709C414.324 346.402 414.234 344.158 414.668 341.626C416.647 342.309 417.936 343.578 419.392 344.548C420.783 345.472 422.123 346.462 423.483 347.425C424.951 348.461 426.419 349.497 427.887 350.535C429.348 351.572 430.816 352.613 432.278 353.65C433.644 354.613 435.003 355.573 436.369 356.536C437.831 357.574 439.299 358.612 440.767 359.649C442.126 360.612 443.486 361.581 444.851 362.537C446.313 363.56 447.781 364.57 449.083 365.473C450.864 365.205 451.872 364.148 453.002 363.349C468.097 352.699 483.172 342.027 498.254 331.359C503.073 327.952 507.892 324.545 512.704 321.133C513.847 320.322 515.079 319.595 515.87 318.015C514.983 311.625 514.07 305.032 513.183 298.611C511.377 296.035 508.76 294.802 506.526 293.127C504.375 291.519 502.167 289.99 500.124 288.53C499.493 285.263 499.48 282.714 500.067 279.375C500.539 279.5 501.056 279.519 501.433 279.758C502.729 280.585 503.986 281.476 505.243 282.364C514.46 288.882 523.67 295.412 532.893 301.914C534.029 302.714 535.05 303.753 536.479 304.002C539.779 302.192 588.778 267.796 600.107 259.329C600.924 258.72 601.671 258.018 602.347 257.442C602.616 253.645 602.315 251.137 599.916 237.067C599.303 235.759 598.09 235.007 596.941 234.19C594.542 232.475 592.129 230.782 589.723 229.068C588.689 228.328 587.674 227.559 586.678 226.825C586.187 224.921 586.442 223.12 586.397 221.343C586.353 219.684 586.385 218.022 586.385 216.748C585.414 214.94 584.055 214.168 582.804 213.284C576.945 209.132 571.067 205 565.207 200.844C564.295 200.196 563.439 199.465 562.559 198.772C562.84 198.433 562.986 198.255 563.28 197.905C564.103 198.402 564.997 198.868 565.814 199.442C578.075 208.096 590.329 216.763 602.584 225.429C613.785 233.355 624.993 241.279 636.194 249.215C637.234 249.955 638.313 250.681 639.232 251.566C642.392 254.625 642.417 259.502 639.283 262.568ZM638.907 293.58C638.039 294.339 637.094 295.008 636.149 295.673C608.5 315.232 580.851 334.787 553.202 354.339C521.774 376.558 490.353 398.773 458.931 420.992C431.589 440.323 404.258 459.658 376.922 478.99C375.875 479.731 374.809 480.455 373.775 481.21C367.31 485.925 357.838 485.842 351.411 481.137C348.82 479.244 346.171 477.44 343.548 475.588C278.611 429.662 213.682 383.732 148.746 337.81C102.032 304.776 55.3049 271.754 8.59097 238.726C7.85698 238.208 7.1357 237.666 6.38895 237.169C4.29547 235.779 2.67431 234.027 1.85735 230.942C1.86373 222.717 1.83182 214.271 1.86373 205.856C2.34881 205.798 2.66792 205.654 2.80834 205.757C27.8854 224.256 53.6837 241.748 79.0799 260.09C79.5075 263.357 79.2331 266.683 79.2842 269.993C79.3289 273.322 79.2906 276.652 79.2906 280.027C80.1075 280.801 80.7649 281.599 81.5755 282.178C89.8345 288.052 98.1191 293.893 106.404 299.73C106.812 300.018 107.304 300.186 107.782 300.423C108.255 300.118 108.682 299.846 109.269 299.468C109.869 293.818 109.123 288.063 109.672 282.369C110.086 282.369 110.406 282.267 110.565 282.383C155.632 314.19 200.687 346.01 245.735 377.839C246.462 378.351 247.114 378.963 247.937 379.639V399.265C248.735 400.026 249.392 400.825 250.203 401.404C258.462 407.28 266.74 413.124 275.024 418.965C275.433 419.253 275.918 419.431 276.454 419.704C276.977 419.303 277.463 418.926 277.992 418.516C278.286 412.85 277.96 407.234 278.197 401.568C279.767 401.561 280.564 402.478 281.471 403.117C289.021 408.435 296.553 413.779 304.097 419.113C319.179 429.782 334.255 440.457 349.349 451.106C350.913 452.212 352.515 453.315 354.232 454.158C359.88 456.941 365.593 456.921 371.222 454.075C372.595 453.385 373.884 452.53 375.141 451.644C400.078 434.033 425.008 416.405 449.938 398.78C490.365 370.193 530.799 341.605 571.232 313.015C593.118 297.535 615.01 282.056 636.896 266.565C638.249 265.608 639.526 264.549 640.802 263.563C641.53 263.712 641.543 264.255 641.543 264.75C641.562 272.448 641.549 280.146 641.568 287.844C641.575 290.183 640.624 292.072 638.907 293.58ZM6.14641 192.212C14.0161 186.691 21.8539 181.118 29.6981 175.568C38.5953 169.278 47.4926 162.984 56.4027 156.711C57.3345 156.054 58.3622 155.527 59.3451 154.941C60.4301 154.062 61.4832 153.135 62.6066 152.314C64.9873 150.584 67.3934 148.887 69.8188 147.225C70.6485 146.657 71.5804 146.237 72.4676 145.749C72.5314 145.637 72.5633 145.491 72.6591 145.419C76.7822 142.21 80.9628 139.071 85.488 136.431C88.7686 134.007 92.0301 131.561 95.3363 129.172C96.3638 128.432 97.5 127.847 98.585 127.191C100.149 125.585 101.955 124.311 103.985 123.362C104.757 122.709 105.491 121.996 106.314 121.412C119.545 112.037 132.789 102.675 146.039 93.3272C146.863 92.7457 147.782 92.306 148.663 91.7998C149.326 91.2158 149.952 90.5737 150.667 90.0573C153.564 87.9632 156.481 85.892 159.417 83.8489C160.145 83.3447 160.962 82.9783 161.74 82.5481C163.317 80.9409 165.072 79.6006 167.185 78.7689C169.393 76.4756 172.055 74.8218 174.805 73.2836C176.369 71.6713 178.176 70.3999 180.218 69.4661C182.522 67.2953 185.094 65.5069 187.909 64.0632C188.885 63.2519 189.811 62.3711 190.838 61.6403C205.557 51.2148 220.281 40.8065 235.012 30.4085C235.944 29.7504 236.965 29.2155 237.948 28.6232C239.537 27.0461 241.318 25.7433 243.361 24.8108C246.118 22.7562 248.85 20.6646 251.645 18.6617C253.196 17.5531 254.849 16.5931 256.458 15.5668C257.019 15.0581 257.543 14.4906 258.155 14.0502C261.168 11.8865 264.187 9.74064 267.231 7.62605C267.959 7.12309 268.782 6.76502 269.561 6.33993C270.097 5.47189 270.85 4.96638 271.878 4.94085C271.501 5.89953 270.678 6.28696 269.759 6.56014C269.695 6.67056 269.65 6.81481 269.555 6.88246C265.278 9.87914 261.002 12.8688 256.719 15.8597C253.228 18.4211 249.743 20.9972 246.233 23.5337C245.416 24.1253 244.497 24.5798 243.622 25.0974C242.033 26.6695 240.252 27.9773 238.216 28.9162C236.908 29.9368 235.606 30.9548 234.304 31.9792C233.002 33.0017 231.7 34.0306 230.334 35.1112C230.289 38.6658 230.251 42.1073 230.206 45.4991C225.923 49.4066 220.671 51.8039 216.803 55.8135C215.705 62.1496 215.175 68.4034 214.014 74.4829C212.788 74.7982 212.163 74.0317 211.454 73.5376C206.52 70.0801 201.606 66.5971 196.679 63.1274C195.74 62.4656 194.783 61.8286 193.672 61.0716C191.809 62.142 189.958 63.2085 188.1 64.2744C185.867 66.5358 183.231 68.2343 180.448 69.7189C178.916 71.3701 177.11 72.6332 175.054 73.5561C172.712 75.6822 170.229 77.606 167.332 78.9304C165.857 80.6556 164.019 81.8766 161.964 82.7925C159.628 85.1905 156.673 86.7696 154.011 88.7431C152.384 89.9533 150.596 90.9503 148.88 92.043C148.005 92.7776 147.118 93.5027 146.256 94.2501C145.299 95.0767 144.361 95.9249 143.371 96.8026V106.951C142.478 107.662 141.712 108.327 140.889 108.918C138.393 110.715 135.859 112.462 133.37 114.273C132.234 115.096 131.181 116.023 129.981 116.995C129.7 118.898 129.413 120.787 129.138 122.677C128.864 124.58 128.711 126.509 128.296 128.381C127.887 130.221 128.117 132.201 127.332 133.849C126.062 134.242 125.449 133.426 124.76 132.943C120.241 129.783 115.754 126.579 111.242 123.401C110.31 122.741 109.333 122.132 108.306 121.449C106.901 122.198 105.561 122.911 104.221 123.623C102.67 125.252 100.889 126.556 98.8212 127.447C98.5659 127.727 98.3488 128.068 98.0488 128.278C93.9576 131.108 89.86 133.918 85.7624 136.733C82.686 139.005 79.6288 141.305 76.5205 143.532C75.2823 144.417 73.9356 145.139 72.6399 145.936C72.2953 146.307 72.0017 146.75 71.5996 147.038C68.0636 149.557 64.5149 152.054 60.9598 154.539C60.5449 154.827 60.0599 155.004 59.6067 155.232C59.0897 155.961 58.5792 156.69 57.9026 157.655V167.424C56.39 168.833 54.7368 169.811 53.2114 170.955C50.4477 173.025 47.4161 174.737 44.7226 177.312C43.4333 183.831 42.8142 190.583 41.8185 197.089C42.3355 198.773 43.6057 199.479 44.7418 200.287C49.9627 204.004 55.2028 207.701 60.4365 211.402C74.6696 221.467 88.9091 231.525 103.129 241.604C104.029 242.243 105.108 242.742 105.816 243.994C105.019 244.244 104.457 244.484 103.863 244.595C99.9956 245.321 96.6702 247.2 93.5045 249.423C90.0387 251.854 86.5985 254.308 83.1328 256.736C82.2967 257.319 81.4223 257.837 80.7011 258.299C79.1055 258.237 78.1799 257.26 77.1524 256.535C64.1702 247.368 51.2009 238.179 38.2251 229C28.3832 222.041 18.5413 215.088 8.70582 208.133C7.97182 207.615 7.25701 207.069 6.50387 206.58C4.40401 205.211 2.75088 203.486 1.91477 200.532C1.34672 197.118 3.05725 194.379 6.14641 192.212ZM272.05 4.84638C272.171 4.70979 272.293 4.57256 272.414 4.43597C272.65 4.98872 272.293 4.85468 272.05 4.84638ZM280.539 1.87141C281.088 2.19692 281.764 2.54542 282.384 2.96795C297.478 13.2281 324.387 32.4605 327.259 35.0646C326.966 36.075 326.002 36.5275 325.21 37.0879C319.147 41.4007 313.071 45.6893 306.995 49.9842C299.246 55.4631 291.491 60.9426 283.737 66.4152C282.696 67.1486 281.63 67.8411 280.43 68.6478C276.243 66.0865 272.395 63.1211 268.425 60.3395C264.538 57.6166 260.664 54.8714 256.789 52.1333C252.807 49.321 248.818 46.5184 244.848 43.6896C240.999 40.9444 237.074 38.2975 233.148 35.3321C233.659 34.794 233.959 34.3855 234.348 34.0926C244.407 26.4505 277.354 3.45495 280.539 1.87141ZM292.736 6.35397C300.37 11.7601 308.016 17.1541 315.656 22.5545C330.514 33.0605 345.367 43.5658 360.225 54.0755C361.572 55.031 362.906 56.0158 364.074 56.8615C364.304 57.9421 363.723 58.297 363.219 58.6596C361.246 60.0816 359.255 61.4884 357.264 62.8894C353.613 65.4616 349.892 67.9483 346.662 71.3503C345.756 70.3903 345.998 69.3097 345.801 68.3855C345.584 67.386 345.443 66.3686 345.29 65.3544C345.124 64.2144 344.99 63.0694 344.843 61.9262C344.709 60.9107 344.588 59.8921 344.435 58.8798C344.282 57.8719 344.084 56.8705 343.879 55.691C339.973 51.8805 334.989 49.367 330.712 45.7735C330.138 42.369 330.77 38.8904 330.342 35.6123C329.563 34.0089 328.191 33.2481 326.947 32.3667C315.228 24.0762 303.503 15.7972 291.785 7.51052C290.228 6.40823 288.696 5.27658 287.145 4.1596C289.398 4.12003 291.089 5.1853 292.736 6.35397ZM362.829 61.3875C363.04 61.175 363.251 60.9631 363.461 60.7505C363.544 60.8367 363.633 60.9235 363.716 61.0097C363.544 61.2612 363.372 61.512 363.199 61.7628C363.078 61.6377 362.951 61.5126 362.829 61.3875ZM360.397 62.9845C360.506 63.0113 360.621 63.0374 360.825 63.0847C360.634 63.1364 360.544 63.1728 360.455 63.1734C360.436 63.174 360.417 63.0509 360.397 62.9845ZM357.883 64.6338C357.896 64.5987 358.061 64.6293 358.298 64.6293C358.042 64.9133 357.851 65.1265 357.659 65.3397C357.232 64.9535 357.781 64.8597 357.883 64.6338ZM354.883 66.8964L355.215 66.763L355.208 67.0177L354.883 66.8964ZM352.094 69.0589C352.253 68.8387 352.413 68.6185 352.572 68.3983C352.636 68.4455 352.7 68.4921 352.764 68.5393C352.598 68.7519 352.426 68.9644 352.26 69.177C352.202 69.138 352.151 69.0985 352.094 69.0589ZM365.957 62.2549C366.078 62.2843 366.212 62.3169 366.314 62.3871C381.288 72.9402 396.255 83.4972 411.228 94.0567C411.541 94.2776 411.841 94.5169 412.122 94.7805C412.3 94.9541 412.428 95.1865 412.62 95.4494C412.428 95.7373 412.288 96.1164 412.013 96.3424C409.301 98.6082 367.814 127.653 365.401 128.945C350.045 118.073 334.778 107.272 319.524 96.4611C319.23 96.2498 319.019 95.9103 318.79 95.653C318.905 95.369 318.93 95.0595 319.09 94.9446C334.535 83.96 349.994 72.99 365.248 62.1624C365.708 62.2198 365.835 62.2249 365.957 62.2549ZM395.546 79.118C396.523 79.7359 397.461 80.4092 398.406 81.0756C431.186 104.253 463.967 127.433 496.748 150.611C507.745 158.387 518.749 166.154 529.733 173.95C530.85 174.744 532.159 175.363 532.886 176.522C532.707 176.918 532.675 177.23 532.503 177.355C527.333 181.115 522.157 184.857 517 188.586C516.725 188.336 516.419 188.195 516.387 188.009C515.781 184.216 515.2 180.417 514.626 176.678C512.89 174.222 510.254 173.018 508.026 171.328C505.888 169.706 503.667 168.189 501.567 166.685C500.744 163.066 501.541 159.566 500.986 156.268C500.22 154.691 498.842 153.926 497.597 153.044C486.083 144.887 474.562 136.746 463.042 128.6C459.685 126.23 456.34 123.853 452.976 121.5C452.364 121.069 451.674 120.742 450.851 120.272C447.685 122.512 444.558 124.742 441.411 126.939C438.392 129.046 435.437 131.249 432.099 133.436C431.084 130.218 430.925 127.301 430.516 124.431C430.121 121.645 429.661 118.868 429.233 116.073C425.289 112.223 420.406 109.77 416.2 106.218C415.505 102.886 416.219 99.3984 415.677 95.4514C414.496 94.501 413.347 93.488 412.109 92.604C406.684 88.7278 401.227 84.8925 395.789 81.0303C395.093 80.5395 394.244 80.1635 394.059 79.2253C394.602 78.7204 395.112 78.8429 395.546 79.118ZM533.863 181.944C532.261 183.667 530.32 184.688 528.591 185.974C526.752 187.344 524.876 188.671 522.968 189.947C521.2 191.131 519.61 192.628 517.715 193.447C516.745 192.688 516.847 191.882 517.3 191.267C517.97 190.354 518.73 189.436 519.636 188.775C523.868 185.701 528.15 182.709 532.433 179.711C532.72 179.513 533.135 179.508 533.709 179.354C533.767 180.306 533.818 181.15 533.863 181.944ZM584.355 237.639C580.66 240.623 576.69 243.206 572.854 245.957C568.999 248.72 565.112 251.436 561.237 254.173C557.472 256.835 553.712 259.509 549.934 262.159C546.079 264.867 542.294 267.682 538.401 270.219C538.018 269.871 537.698 269.721 537.686 269.554C537.341 263.425 537.418 257.299 537.641 251.078C552.921 240.318 567.99 229.465 583.283 218.939C583.449 218.826 583.761 218.925 584.355 218.925V237.639ZM475.456 259.185C474.415 258.451 473.407 257.681 472.354 256.904C472.354 256.043 472.239 255.268 472.367 254.533C473.254 249.378 473.554 244.127 474.728 239.035C475.13 239.06 475.449 238.982 475.622 239.104C495.44 253.035 515.245 266.981 534.897 280.82C535.439 284.074 535.465 297.365 534.973 300.552C533.926 300.877 533.301 300.089 532.605 299.601C526.938 295.624 521.289 291.618 515.641 287.62C502.243 278.143 488.846 268.666 475.456 259.185ZM410.775 335.214C403.359 329.936 395.923 324.7 388.5 319.438C387.466 318.707 386.483 317.907 385.36 317.05C386.145 311.513 386.911 306.081 387.657 300.75C388.666 300.145 389.247 300.782 389.834 301.198C395.706 305.325 401.571 309.459 407.431 313.602C420.094 322.555 432.75 331.512 445.407 340.472C446.339 341.134 447.245 341.836 448.062 342.44C448.515 345.282 448.707 354.968 448.419 360.647C448.4 361.12 448.228 361.586 448.119 362.103C446.702 362.072 445.898 361.167 444.985 360.526C437.135 354.989 429.291 349.427 421.447 343.874C419.985 342.837 418.511 341.81 417.049 340.77C415.907 339.957 414.847 339.105 413.954 337.952C413.117 336.866 411.911 336.026 410.775 335.214ZM302.393 361.193C303.446 360.589 304.033 361.224 304.633 361.641C308.514 364.358 312.382 367.103 316.256 369.839C330.285 379.748 344.307 389.656 358.33 399.568C359.791 400.601 361.227 401.663 362.734 402.75C363.097 405.737 363.263 416.664 363.034 420.808C363.008 421.293 362.836 421.769 362.746 422.189C361.559 422.534 360.94 421.762 360.238 421.268C353.211 416.329 346.196 411.375 339.188 406.418C327.259 397.986 315.33 389.551 303.401 381.11C302.265 380.304 301.161 379.444 299.942 378.535C300.625 372.626 301.404 366.83 302.393 361.193ZM291.402 366.657C288.83 365.35 286.124 364.311 283.475 363.155C283.551 362.923 283.564 362.588 283.724 362.472C293.438 355.598 303.159 348.741 312.892 341.9C313.052 341.787 313.364 341.885 313.607 341.885C313.741 342.075 313.99 342.27 313.996 342.468C314.022 344.378 314.009 346.289 314.009 348.319C313.339 348.89 312.701 349.506 311.992 350.02C309.292 351.966 306.554 353.858 303.867 355.816C302.738 356.637 301.697 357.572 300.721 358.368C299.687 363.176 299.514 367.91 298.308 373.087C295.819 370.471 294.064 368.007 291.402 366.657ZM113.941 276.814C116.756 274.805 119.603 272.826 122.411 270.805C125.564 268.537 128.424 265.998 129.955 262.28C130.083 261.956 130.447 261.726 130.855 261.289C141.335 268.467 151.605 275.915 161.977 283.209C172.355 290.51 182.714 297.853 192.9 305.052C194.457 305.155 195.268 304.22 196.181 303.575C205.41 297.076 214.614 290.548 223.824 284.028C224.87 283.287 225.904 282.526 226.977 281.826C227.372 281.568 227.87 281.46 228.54 281.195C228.879 283.601 228.668 285.748 228.693 287.995C227.883 288.653 227.123 289.332 226.306 289.922C223.702 291.797 221.06 293.613 218.475 295.506C217.352 296.328 216.33 297.285 215.252 298.184C214.339 305.034 213.165 311.702 212.546 318.172C213.522 319.893 214.913 320.627 216.152 321.506C231.125 332.099 246.105 342.678 261.079 353.261C265.061 356.074 269.038 358.883 273.008 361.717C273.493 362.063 274.182 362.306 274.118 363.22C273.831 363.336 273.512 363.523 273.173 363.59C269.069 364.406 265.457 366.249 262.093 368.696C258.774 371.112 255.411 373.458 252.054 375.817C251.115 376.473 250.139 377.066 249.041 377.777C248.128 377.232 247.228 376.771 246.411 376.196C235.197 368.288 223.989 360.367 212.788 352.444C179.803 329.121 146.824 305.797 113.846 282.469C112.71 281.667 111.612 280.814 110.067 279.665C111.682 278.476 112.799 277.628 113.941 276.814ZM107.048 280.94C105.293 281.624 103.64 282.269 101.789 282.992C99.6445 281.13 100.423 279.043 100.468 277.242C101.572 274.657 103.812 273.841 106.014 273.285C108.733 272.6 111.535 272.562 114.516 273.762C113.993 274.376 113.731 274.808 113.361 275.095C112.352 275.876 111.312 276.627 110.246 277.33C108.835 278.262 107.597 279.335 107.048 280.94ZM104.285 284.769C105.165 283.53 105.899 283.58 106.806 283.766C106.889 284.04 107.055 284.372 107.067 284.71C107.074 284.917 106.844 285.133 106.653 285.471C105.982 285.272 105.28 285.064 104.285 284.769ZM83.5222 279.034C87.0645 276.512 90.6323 274.023 94.1683 271.489C100.327 267.074 107.201 265.785 114.573 266.897C116.699 267.217 118.747 267.967 121.128 269.158C119.845 270.716 118.511 271.45 117.088 272.38C116.201 272.094 115.243 271.789 114.292 271.48C111.548 270.589 108.791 270.501 105.982 271.2C103.117 271.914 100.838 273.525 99.1658 275.866C97.6276 278.023 97.3277 280.031 99.0446 282.632C100.276 284.503 101.955 285.845 103.959 286.786C104.878 287.218 105.855 287.527 106.908 287.929C107.661 291.072 107.208 294.208 107.233 297.366C106.659 297.366 106.365 297.455 106.174 297.351C104.266 296.318 84.2243 281.978 82.4755 280.428C82.3861 279.645 83.0371 279.381 83.5222 279.034ZM123.305 249.882C124.051 250.358 124.696 251.003 125.353 251.612C126.738 252.906 127.511 254.455 127.236 256.415C127.185 256.791 127.23 257.182 127.23 257.691C127.498 258.28 127.811 258.974 128.181 259.792C128.015 263.293 126.292 265.946 123.145 268.011C122.507 267.665 121.869 267.269 121.192 266.964C116.916 265.033 112.416 264.024 107.744 264.404C102.81 264.805 98.2595 266.482 94.1938 269.372C90.8558 271.749 87.5049 274.12 84.1413 276.467C83.4392 276.959 82.6542 277.337 81.3649 278.077V260.4C82.1308 259.757 82.8648 259.053 83.6818 258.467C87.122 256.005 90.5877 253.579 94.0406 251.138C97.5447 248.663 101.355 246.887 105.625 246.289C111.931 245.408 117.879 246.432 123.305 249.882ZM49.267 181.064C60.0599 188.667 70.84 196.292 81.6201 203.914C88.9473 209.093 96.2745 214.273 103.595 219.458C104.642 220.197 105.67 220.963 106.787 221.782C107.17 225.574 107.157 238.135 106.806 241.274C106.116 241.605 105.587 241.211 105.063 240.847C102.025 238.708 98.9935 236.558 95.9618 234.412C79.6288 222.87 63.2959 211.331 46.9757 199.784C46.0374 199.124 45.1438 198.412 44.1928 197.698C43.7843 194.527 44.6971 191.528 45.0992 188.514C45.4885 185.62 45.5268 182.635 46.497 179.857C47.8118 179.596 48.4819 180.509 49.267 181.064ZM62.1853 160.213C66.685 163.384 71.1847 166.555 75.678 169.733C85.0859 176.385 94.4938 183.039 103.895 189.701C104.929 190.434 105.919 191.226 107.004 192.046C107.029 193.659 107.08 195.186 107.067 196.71C107.023 201.314 106.953 205.917 106.882 210.521C106.882 210.6 106.716 210.677 106.627 210.755C106.391 210.756 106.104 210.843 105.919 210.743C104.163 209.783 62.4087 180.167 60.5003 178.559C60.1173 175.522 60.0918 163.238 60.462 159.808C61.1513 159.444 61.6683 159.85 62.1853 160.213ZM139.714 145.624C144.214 148.804 148.714 151.982 153.201 155.18C153.909 155.686 154.547 156.295 155.345 156.963C154.72 157.503 154.273 157.953 153.769 158.319C132.642 173.642 111.357 188.516 108.146 190.221C105.242 188.666 70.5528 164.419 62.5172 158.308C62.0257 157.936 61.6108 157.468 61.1322 157.017C61.464 156.605 61.6492 156.239 61.9491 156.029C77.1971 145.207 92.4577 134.399 107.706 123.597C109.308 123.861 110.335 124.872 111.459 125.664C120.886 132.303 130.3 138.966 139.714 145.624ZM155.951 178.276C153.858 180.25 113.393 208.943 110.188 210.73C109.359 210.571 109.301 209.902 109.295 209.27C109.269 204.909 109.25 200.547 109.257 196.186C109.257 194.788 109.346 193.39 109.384 192.197C111.414 190.381 152.422 161.154 155.007 159.67C155.192 159.565 155.485 159.657 155.747 159.657C155.868 159.837 156.117 160.026 156.13 160.23C156.379 164.49 156.258 175.619 155.951 178.276ZM134.627 120.71C142.076 125.953 149.499 131.221 156.941 136.478C167.517 143.957 178.099 151.43 188.675 158.914C189.919 159.797 191.126 160.736 192.217 161.549C192.555 164.794 192.581 177.454 192.281 180.989C191.4 181.441 190.826 180.774 190.232 180.356C185.292 176.897 180.371 173.418 175.45 169.939C170.523 166.459 165.608 162.975 160.687 159.486C159.647 158.748 158.702 157.954 157.885 156.91C157.043 155.825 155.849 154.973 154.713 154.16C147.399 148.948 140.059 143.777 132.732 138.586C131.698 137.85 130.683 137.078 129.591 136.274C129.591 135.563 129.521 134.923 129.604 134.302C130.204 129.726 130.83 125.155 131.481 120.586C131.525 120.228 131.781 119.897 131.959 119.503C133.127 119.339 133.842 120.156 134.627 120.71ZM148.299 100.404C152.913 103.637 157.515 106.894 162.117 110.148C171.218 116.584 180.32 123.021 189.415 129.464C190.353 130.129 191.26 130.833 192.096 131.456C192.575 134.385 192.677 145.611 192.281 150.553C191.706 150.485 191.407 150.539 191.228 150.414C176.133 139.808 161.051 129.188 146.052 118.626C145.037 116.404 145.541 114.196 145.458 112.05C145.382 110.003 145.395 107.948 145.458 105.9C145.529 103.758 145.139 101.579 145.771 99.5229C146.952 99.1572 147.597 99.9129 148.299 100.404ZM223.632 84.274C228.444 87.6772 233.263 91.0684 238.063 94.4876C238.874 95.062 239.595 95.7526 240.303 96.343C240.131 96.7796 240.112 97.1026 239.946 97.2213C224.621 108.152 209.284 119.067 194.215 129.791C192.523 129.913 191.719 128.976 190.807 128.331C181.482 121.764 172.176 115.175 162.87 108.591C158.473 105.484 154.075 102.384 149.69 99.2682C148.656 98.5316 147.648 97.7472 146.703 97.0362C146.748 95.5969 147.858 95.2426 148.637 94.6861C154.471 90.5137 160.343 86.3847 166.202 82.2424C174.257 76.5477 182.305 70.8486 190.366 65.1623C191.298 64.5048 192.281 63.9144 193.206 63.3119C194.808 63.5762 195.83 64.6261 196.953 65.4188C205.863 71.6841 214.741 77.9857 223.632 84.274ZM241.478 117.825C240.865 118.389 240.354 118.967 239.748 119.4C225.426 129.54 211.097 139.666 196.768 149.786C196.264 150.142 195.689 150.401 195.179 150.687C194.904 150.406 194.611 150.247 194.591 150.062C194.355 147.502 194.413 134.94 194.649 131.96C195.351 130.735 196.659 130.111 197.795 129.307C210.229 120.496 222.675 111.699 235.127 102.913C236.895 101.668 238.574 100.286 240.712 99.1393C241.076 99.7188 241.286 99.9129 241.325 100.138C241.42 100.637 241.471 101.153 241.471 101.662C241.484 107.035 241.478 112.409 241.478 117.825ZM220.466 58.5676C223.511 60.6963 226.549 62.837 229.581 64.9816C245.058 75.9267 260.542 86.8717 276.014 97.8251C277.156 98.6319 278.401 99.3231 279.179 100.415C279.645 105.468 279.53 117.007 278.994 119.577C278.879 119.613 278.72 119.716 278.65 119.675C277.66 119.113 276.633 118.592 275.701 117.943C248.186 98.794 218.309 77.4553 216.19 75.4301C216.784 69.7093 217.645 63.9221 218.545 58.2868C219.464 57.7219 219.968 58.2179 220.466 58.5676ZM315.605 95.8898C315.132 96.6124 314.373 97.1894 313.652 97.7019C303.72 104.752 293.77 111.782 283.82 118.808C283.207 119.237 282.62 119.762 281.79 119.694C281.247 116.945 281.12 106.189 281.567 100.309C282.211 99.7737 282.952 99.0754 283.769 98.4946C302.189 85.456 320.621 72.4283 339.054 59.4095C339.871 58.8313 340.765 58.357 341.754 57.7539C342.029 58.4055 342.341 58.851 342.399 59.3265C342.986 64.4046 344.065 69.4265 344.358 74.8046C342.105 76.4264 340.139 77.8606 338.154 79.2648C331.772 83.7844 325.376 88.2881 318.994 92.8102C317.743 93.6955 316.479 94.5476 315.605 95.8898ZM364.553 147.846C364.521 148.315 364.316 148.772 364.214 149.148C363.155 149.417 362.587 148.809 361.987 148.388C356.842 144.777 351.711 141.146 346.579 137.517C337.988 131.445 329.397 125.373 320.813 119.292C319.772 118.556 318.777 117.761 317.756 116.99V98.4831C318.458 97.8679 318.988 98.2253 319.517 98.5955C321.087 99.7035 322.657 100.816 324.228 101.927C336.482 110.592 348.743 119.257 360.991 127.928C362.134 128.736 363.244 129.591 364.208 130.308C364.623 132.985 364.833 143.998 364.553 147.846ZM426.744 137.287C419.436 142.481 412.109 147.644 404.788 152.825C403.333 153.859 401.839 154.844 400.844 156.421C400.448 157.041 399.765 157.505 399.146 157.944C389.113 165.055 379.073 172.152 369.027 179.241C368.529 179.591 367.954 179.831 367.042 180.327C366.678 176.046 366.723 163.693 367.055 160.633C369.876 158.089 409.479 129.843 424.906 119.386C425.525 118.968 426.189 118.615 426.917 118.178C427.204 118.639 427.497 118.915 427.555 119.233C428.499 124.389 429.189 129.581 429.744 134.602C428.978 136.006 427.772 136.558 426.744 137.287ZM496.359 157.434C481.009 168.796 454.055 187.626 450.979 189.146C448.241 187.629 406.69 158.249 404.207 156.077C404.195 155.132 404.992 154.819 405.586 154.393C410.711 150.749 415.843 147.125 420.974 143.494C429.98 137.122 438.98 130.747 447.992 124.381C448.93 123.72 449.9 123.111 450.806 122.513C451.304 122.69 451.713 122.74 452.013 122.95C467.197 133.686 482.381 144.435 497.546 155.195C497.725 155.322 497.782 155.622 497.999 156.048C497.476 156.489 496.946 156.998 496.359 157.434ZM499.001 177.093C496.857 179.01 457.738 206.953 453.742 209.444C453.443 209.632 453.047 209.674 452.721 209.774C452.523 209.536 452.249 209.358 452.249 209.178C452.223 203.167 452.23 197.156 452.23 190.972C455.842 187.966 459.85 185.456 463.674 182.695C467.51 179.92 471.397 177.204 475.264 174.468C479.03 171.806 482.796 169.154 486.562 166.494C490.423 163.765 494.265 161.002 498.018 158.449C498.905 158.691 499.001 159.178 499.001 159.701V177.093ZM402.988 172.274C403.033 167.795 403.103 163.316 403.18 158.837C403.18 158.759 403.346 158.683 403.461 158.59C403.678 158.59 403.984 158.491 404.15 158.604C419.474 169.098 434.512 179.99 449.549 190.543C450.092 193.852 450.13 206.155 449.658 209.552C448.968 209.938 448.451 209.532 447.934 209.169C443.747 206.218 439.554 203.265 435.373 200.307C425.538 193.354 415.702 186.4 405.873 179.437C404.941 178.776 404.061 178.044 403.046 177.26C403.027 175.582 402.976 173.927 402.988 172.274ZM468.614 255.327C463.399 252.007 454.553 245.544 452.172 243.265C462.991 235.621 473.541 228.161 484.098 220.712C484.5 220.43 484.972 220.255 485.279 220.099C486.147 220.265 486.179 220.855 486.185 221.321C486.223 223.1 486.178 224.88 486.166 226.699C485.259 227.41 484.487 228.063 483.67 228.65C481.168 230.439 478.634 232.179 476.152 233.989C475.028 234.81 473.988 235.752 472.992 236.57C471.626 242.983 471.307 249.377 469.999 255.707C469.297 255.522 468.901 255.51 468.614 255.327ZM401.756 280.176C402.241 280.331 402.752 280.38 403.122 280.629C405.031 281.919 406.914 283.254 408.796 284.585C420.84 293.094 432.871 301.604 444.909 310.118C445.956 310.857 446.977 311.624 448.049 312.406C448.17 312.914 448.387 313.402 448.394 313.892C448.426 319.276 448.426 324.661 448.426 330.045C448.426 330.676 448.381 331.327 447.354 331.634C432.189 320.91 416.921 310.116 401.827 299.446C401.354 296.197 401.316 283.868 401.756 280.176ZM399.459 278C398.98 278.716 398.221 279.287 397.499 279.797C387.574 286.839 377.63 293.861 367.686 300.879C367.169 301.244 366.601 301.531 365.963 301.909C365.714 301.554 365.344 301.275 365.344 300.993C365.306 294.847 365.318 288.7 365.318 282.204C385.175 268.178 404.839 254.285 424.523 240.407C424.81 240.203 425.219 240.176 425.672 240.038C425.857 240.566 426.106 241.024 426.182 241.507C426.84 245.94 427.478 250.376 428.091 254.815C428.174 255.437 428.104 256.08 428.104 256.888C427.338 257.478 426.565 258.125 425.742 258.707C418.217 264.041 410.686 269.362 403.154 274.69C401.795 275.65 400.423 276.56 399.459 278ZM366.984 303.923C369.633 301.468 387.996 288.252 397.41 281.999C397.825 281.723 398.316 281.552 398.782 281.362C398.865 281.327 399.012 281.434 399.127 281.476C399.248 281.686 399.465 281.896 399.465 282.109C399.497 284.025 399.484 285.94 399.484 287.894C395.246 291.709 390.096 294.221 386.075 298.061C384.9 303.824 384.549 309.568 383.387 315.228C380.732 314.096 370.75 307.195 366.984 303.923ZM280.041 342.847C280.781 341.779 282.052 341.114 283.188 340.31C294.906 332.002 306.637 323.713 318.362 315.418C324.54 311.048 330.712 306.666 336.91 302.32C337.931 301.6 338.837 300.616 340.312 300.435C340.503 300.89 340.829 301.337 340.88 301.812C341.409 306.897 342.571 311.912 342.794 316.958C341.729 318.351 340.356 319.088 339.112 319.969C331.899 325.092 324.662 330.187 317.443 335.302C316.192 336.188 314.922 337.027 314.047 338.376C313.581 339.101 312.828 339.686 312.107 340.197C302.067 347.323 292.008 354.424 281.956 361.53C281.439 361.895 280.941 362.325 280.233 362.117C279.722 359.416 279.607 348.49 280.041 342.847ZM194.63 282.673C195.351 281.4 196.672 280.784 197.802 279.98C213.28 269.015 228.77 258.071 244.254 247.121C246.973 245.198 249.679 243.259 252.417 241.354C253.139 240.85 253.924 240.445 254.664 240.007C254.945 240.293 255.245 240.452 255.277 240.656C256.158 245.947 257.089 251.234 257.46 256.355C256.687 257.82 255.5 258.386 254.473 259.117C247.152 264.303 239.818 269.467 232.504 274.657C231.049 275.69 229.555 276.662 228.559 278.253C228.106 278.971 227.27 279.475 226.543 279.989C216.822 286.886 207.101 293.771 197.361 300.64C196.666 301.132 195.862 301.478 194.764 302.084C194.374 298.532 194.336 286.556 194.63 282.673ZM192.102 279.903C172.533 266.059 152.977 252.205 133.421 238.34C133.249 238.217 133.191 237.925 133.006 237.558C135.961 234.987 139.319 232.928 142.312 230.802C143.378 230.992 143.314 231.589 143.333 232.055C143.378 233.204 143.346 234.356 143.346 235.381C142.848 236.286 142.427 237.05 142.031 237.77C142.657 239.298 143.997 239.903 145.127 240.705C153.807 246.861 162.494 253 171.18 259.144C177.461 263.586 183.735 268.033 190.022 272.467C191.062 273.201 192.134 273.883 193.021 274.472C194.56 274.492 195.37 273.566 196.289 272.922C202.902 268.284 209.488 263.616 216.081 258.953C224.666 252.883 233.244 246.809 241.822 240.734C242.965 239.929 244.222 239.247 244.963 237.822C244.541 237.041 244.126 236.274 243.75 235.571V230.982C244.146 230.945 244.452 230.813 244.624 230.916C247.899 232.899 251.013 235.109 253.936 237.507C253.764 237.894 253.732 238.197 253.56 238.316C234.119 252.116 214.671 265.905 195.217 279.684C194.706 280.043 194.119 280.292 193.532 280.613C192.996 280.352 192.504 280.188 192.102 279.903ZM129.815 253.033C130.574 248.771 130.715 244.403 131.838 240.245C133.204 240.004 133.881 240.903 134.666 241.456C145.356 248.978 156.028 256.526 166.706 264.071C174.237 269.397 181.769 274.728 189.294 280.065C190.334 280.8 191.343 281.582 192.236 282.249C192.632 286.392 192.568 298.696 192.16 301.584C191.636 301.96 191.183 301.667 190.762 301.4C190.002 300.919 189.275 300.399 188.541 299.881C170.121 286.862 151.707 273.843 133.287 260.818C132.042 259.934 130.817 259.008 129.687 258.18C129.202 256.315 129.528 254.645 129.815 253.033ZM111.305 243.02C121.109 236.03 130.925 229.056 140.755 222.093C141.361 221.664 142.037 221.335 142.708 220.944C143.544 223.287 143.557 223.477 143.116 227.873C139.019 231.365 134.104 233.97 129.994 237.721C129.623 240.069 129.253 242.335 128.915 244.604C128.589 246.744 128.296 248.889 128.009 250.876C127.211 251.31 126.841 250.968 126.502 250.597C122.743 246.504 117.924 244.717 112.544 244.12C112.078 244.067 111.612 243.965 111.139 243.887C111.21 243.467 111.171 243.118 111.305 243.02ZM169.999 179.936C170.765 185.445 171.506 190.755 172.24 196.02C171.442 197.435 170.127 198.053 169.004 198.852C161.594 204.125 154.164 209.371 146.735 214.618C145.478 215.507 144.271 216.415 143.365 217.718C142.874 218.428 142.12 218.994 141.399 219.505C131.583 226.475 121.754 233.427 111.912 240.369C111.312 240.794 110.769 241.443 109.895 241.264C109.723 241.079 109.435 240.916 109.416 240.724C109.052 237.169 109.206 224.492 109.62 221.96C111.433 220.351 166.802 181.015 168.793 179.949C168.985 179.848 169.278 179.936 169.999 179.936ZM190.009 183.98C185.203 187.393 180.384 190.788 175.559 194.164C175.271 194.363 174.857 194.369 174.282 194.522C173.133 188.937 172.699 183.318 171.678 177.519C167.823 173.65 162.647 171.158 158.307 167.307C158.217 164.995 158.096 162.971 158.409 161.111C159.117 160.585 159.583 160.88 159.992 161.159C161.683 162.315 163.362 163.492 165.034 164.674C172.572 169.995 180.109 175.317 187.634 180.648C188.668 181.38 189.664 182.163 190.73 182.959C190.424 183.4 190.283 183.784 190.009 183.98ZM192.485 271.052C191.292 271.506 190.73 270.873 190.124 270.448C184.469 266.461 178.827 262.458 173.178 258.462C165.015 252.691 156.851 246.926 148.694 241.149C147.654 240.415 146.658 239.628 145.81 238.993C145.305 235.314 145.331 223.347 145.841 220.11C146.295 220.19 146.805 220.158 147.175 220.371C148.063 220.882 148.886 221.498 149.722 222.09C162.908 231.407 176.095 240.726 189.275 250.051C190.315 250.786 191.324 251.572 192.453 252.419C192.517 258.696 192.492 264.932 192.485 271.052ZM240.246 217.093C240.214 218.176 239.282 218.521 238.586 219.017C233.059 222.96 227.513 226.883 221.966 230.804C213.592 236.723 205.218 242.638 196.844 248.546C195.81 249.275 194.738 249.95 193.602 250.704C192.83 250.273 192.134 249.964 191.521 249.533C177.18 239.404 162.851 229.263 148.522 219.117C147.897 218.676 147.316 218.178 146.78 217.76C146.575 216.675 147.322 216.311 147.929 215.881C153.054 212.248 158.179 208.626 163.31 205.001C172.412 198.564 181.514 192.127 190.621 185.693C191.458 185.103 192.313 184.539 193.321 183.849C196.94 185.918 238.101 215.108 240.246 217.093ZM255.315 119.969C256.126 125.275 257.109 130.561 257.434 135.79C256.534 137.222 255.245 137.876 254.115 138.681C246.896 143.806 239.659 148.905 232.427 154.018C230.966 155.052 229.466 156.014 228.502 157.634C228.132 158.256 227.404 158.692 226.785 159.133C216.733 166.255 206.674 173.366 196.608 180.464C196.123 180.807 195.542 181.015 194.962 181.312C194.317 178.584 194.17 168.156 194.643 161.972C195.255 160.818 196.449 160.252 197.483 159.521C213.292 148.321 229.108 137.134 244.924 125.946C247.541 124.094 250.158 122.239 252.794 120.409C253.407 119.985 254.083 119.657 254.639 119.34C254.958 119.63 255.283 119.777 255.315 119.969ZM276.971 122.465C271.642 126.257 266.293 130.02 260.938 133.777C260.747 133.913 260.459 133.923 260.102 134.025C259.164 133.427 259.196 132.366 259.062 131.396C258.43 126.827 257.804 122.256 257.198 117.85C256.47 116.2 255.149 115.373 253.898 114.481C251.39 112.692 248.869 110.933 246.367 109.139C245.435 108.474 244.554 107.748 243.68 107.073V98.5361C244.395 97.8946 244.937 98.3204 245.435 98.6721C249.424 101.473 253.4 104.288 257.383 107.1C263.351 111.32 269.325 115.539 275.293 119.766C276.02 120.28 276.709 120.842 277.469 121.425C277.284 121.841 277.226 122.287 276.971 122.465ZM324.649 155.731C325.051 156.017 325.376 156.41 325.772 156.784C325.504 157.196 325.37 157.574 325.102 157.797C322 160.374 280.941 189.094 278.803 190.21C276.467 188.967 237.163 161.466 232.497 157.789C232.229 157.574 232.076 157.207 231.84 156.87C232.127 156.546 232.338 156.206 232.632 155.994C247.911 145.171 263.204 134.359 278.809 123.32C294.319 134.223 309.484 144.98 324.649 155.731ZM302.15 115.993C301.238 122.323 300.344 128.524 299.47 134.57C298.882 135.156 298.378 135.003 297.97 134.712C292.736 131.015 287.515 127.302 282.301 123.582C282.103 123.442 281.988 123.191 281.815 122.972C282.02 121.804 283.086 121.443 283.883 120.874C291.408 115.531 298.953 110.215 306.49 104.889C308.692 103.335 310.882 101.775 313.077 100.221C313.69 99.7878 314.29 99.3288 315.024 99.2689C315.247 99.5867 315.503 99.7814 315.509 99.9805C315.541 101.894 315.528 103.808 315.528 105.906C314.896 106.425 314.252 107.027 313.537 107.54C310.831 109.486 308.092 111.382 305.399 113.345C304.269 114.166 303.229 115.106 302.15 115.993ZM364.565 178.445C364.533 178.91 364.323 179.363 364.221 179.753C363.78 179.753 363.461 179.854 363.295 179.739C342.75 165.297 322.211 150.84 301.404 136.192C302.278 130.055 302.84 124.232 303.982 118.598C305.252 118.136 305.871 118.954 306.561 119.435C311.29 122.738 316 126.071 320.704 129.402C334.312 139.022 347.92 148.645 361.521 158.272C362.453 158.933 363.359 159.633 364.144 160.215C364.655 162.988 364.884 173.366 364.565 178.445ZM410.43 216.428C410.705 216.649 410.858 217.011 411.171 217.459C410.66 217.907 410.22 218.349 409.728 218.718C399.835 226.108 367.271 248.895 363.895 250.718C348.66 239.958 333.476 229.233 318.298 218.498C317.902 218.217 317.59 217.812 317.277 217.504C317.417 217.141 317.437 216.835 317.596 216.706C321.298 213.74 361.878 185.24 364.144 183.988C366.289 185.137 407.182 213.771 410.43 216.428ZM387.536 176.279C387.038 179.593 386.572 182.755 386.094 185.913C385.615 189.035 385.443 192.213 384.568 195.374C384.038 195.233 383.636 195.228 383.356 195.035C377.873 191.265 372.435 187.441 366.78 183.356C369.371 181.003 397.493 161.093 400.32 159.541C400.939 159.693 401.042 160.178 401.048 160.7C401.054 162.489 401.048 164.276 401.048 166.078C400.276 166.734 399.637 167.355 398.923 167.869C396.121 169.892 393.274 171.861 390.472 173.89C389.445 174.633 388.506 175.487 387.536 176.279ZM414.79 228.083C414.209 224.739 414.234 221.665 414.879 218.951C415.236 219.053 415.632 219.08 415.926 219.264C420.074 221.841 446.077 240.509 448.196 242.442C445.554 244.816 434.027 252.995 430.861 254.777C430.05 254.597 430.05 253.913 429.961 253.302C429.412 249.377 428.889 245.448 428.321 241.526C428.142 240.267 427.861 239.023 427.619 237.743C423.687 233.96 418.817 231.515 414.79 228.083ZM365.491 252.14C380.247 241.615 395.24 231.075 410.213 220.512C410.609 220.233 411.062 220.042 412 219.537V238.731C411.286 239.323 410.545 240.02 409.728 240.6C395.916 250.383 382.105 260.158 368.267 269.908C367.476 270.468 366.78 271.355 365.612 271.192C365.172 268.43 365.082 256.76 365.491 252.14ZM303.554 237.607C306.586 235.124 309.586 233.171 312.535 231.144C312.809 230.953 313.218 230.954 313.741 230.821C314.322 232.381 314.028 233.897 314.067 235.393C313.607 236.179 313.167 236.942 312.72 237.712C312.943 238.096 313.064 238.504 313.339 238.734C314.309 239.561 315.311 240.37 316.351 241.108C331.216 251.631 346.081 262.143 360.953 272.65C361.891 273.312 362.874 273.915 363.736 274.481C365.318 274.514 366.206 273.465 367.22 272.749C377.809 265.292 388.379 257.806 398.955 250.327C403.563 247.069 408.171 243.818 412.766 240.545C413.8 239.814 414.975 239.224 415.658 237.853C415.287 237.12 414.892 236.351 414.541 235.667V230.906C415.064 230.996 415.505 230.947 415.773 231.135C418.798 233.243 421.989 235.141 424.778 237.66C424.402 238.105 424.21 238.46 423.91 238.67C404.335 252.517 384.747 266.354 365.153 280.176C364.853 280.385 364.431 280.418 364.106 280.521C361.132 278.923 306.088 239.968 303.554 237.607ZM243.75 221.205C244.924 220.84 245.543 221.615 246.245 222.106C252.315 226.372 258.366 230.658 264.423 234.94C267.353 237.006 270.282 239.064 273.193 241.152C274.105 241.808 274.954 242.55 275.88 243.288C275.58 243.777 275.452 244.17 275.184 244.39C272.044 246.974 262.291 253.625 259.904 254.827C258.583 252.258 258.883 249.375 258.34 246.68C257.792 243.931 257.543 241.119 257.192 238.499C256.336 236.768 254.9 235.893 253.553 234.931C250.324 232.632 247.094 230.341 243.846 228.033C243.463 225.685 243.539 223.43 243.75 221.205ZM228.649 167.25C228.049 167.777 227.436 168.417 226.728 168.927C224.028 170.873 221.29 172.766 218.583 174.702C217.754 175.296 216.956 175.938 216.19 176.615C215.82 176.946 215.558 177.407 215.309 177.729C214.422 183.26 213.56 188.676 212.68 194.092C212.667 194.195 212.514 194.277 212.424 194.366C210.069 193.432 200.221 186.645 196.251 183.185C198.281 181.372 223.134 163.564 227.296 160.933C227.589 160.747 227.979 160.715 228.553 160.544C228.866 162.811 228.713 164.946 228.649 167.25ZM342.405 177.551C338.486 173.698 333.508 171.176 329.321 167.655C328.772 164.332 328.804 161.268 329.468 158.445C329.94 158.653 330.412 158.791 330.808 159.047C337.184 163.151 360.487 179.912 362.606 181.899C362.67 182.667 362.07 183.007 361.572 183.365C356.555 186.927 351.532 190.477 346.509 194.016C346.203 194.231 345.82 194.326 344.99 194.684C343.835 188.807 343.362 183.209 342.405 177.551ZM314.022 227.633C313.39 228.161 312.752 228.771 312.043 229.282C309.343 231.23 306.599 233.124 303.905 235.085C302.776 235.906 301.735 236.844 300.618 237.755C300.204 240.761 299.942 243.702 299.355 246.576C298.799 249.305 299.036 252.191 297.887 254.795C297.504 254.732 297.204 254.767 297.019 254.639C292.187 251.266 287.362 247.881 282.549 244.481C282.256 244.274 282.064 243.925 281.847 243.67C281.95 243.372 281.962 243.046 282.122 242.933C292.251 235.728 302.386 228.539 312.535 221.365C312.816 221.167 313.224 221.15 313.549 221.057C313.741 221.318 313.996 221.507 314.003 221.701C314.028 223.616 314.022 225.532 314.022 227.633ZM313.952 217.814C313.486 218.535 312.688 219.076 311.967 219.59C302.029 226.642 292.079 233.677 282.128 240.705C281.618 241.062 281.043 241.317 280.118 241.832C279.971 240.976 279.85 240.607 279.85 240.237C279.837 234.337 279.843 228.438 279.843 222.719C280.552 221.148 281.879 220.536 283.015 219.733C291.485 213.718 299.967 207.724 308.456 201.727C318.196 194.842 327.936 187.96 337.682 181.082C338.403 180.574 339.15 180.111 339.967 179.575C340.286 179.977 340.65 180.229 340.695 180.528C341.403 185.473 342.08 190.423 342.743 195.374C342.788 195.738 342.654 196.126 342.571 196.735C341.556 197.483 340.439 198.328 339.297 199.138C332.072 204.253 324.84 209.359 317.622 214.474C316.262 215.435 314.896 216.354 313.952 217.814ZM363.046 261.702C363.11 264.756 363.168 267.823 362.957 270.695C361.77 271.301 361.17 270.678 360.57 270.258C356.262 267.24 351.979 264.191 347.683 261.156C338.365 254.566 329.04 247.98 319.721 241.387C318.579 240.577 317.456 239.73 316.275 238.863C315.949 233.373 316.032 222.925 316.39 220.046C316.92 219.694 317.373 219.977 317.794 220.259C318.758 220.901 319.696 221.567 320.641 222.233C333.521 231.343 346.401 240.453 359.274 249.569C360.423 250.381 361.54 251.233 362.695 252.085C363.448 255.313 362.982 258.524 363.046 261.702ZM280.086 192.213C282.269 190.143 303.248 175.105 323.794 160.894C324.515 160.399 325.287 159.986 326.149 159.467C326.417 159.91 326.755 160.203 326.761 160.497C326.793 166.134 326.8 171.771 326.787 177.407C326.787 177.777 326.602 178.147 326.43 178.801C311.552 189.343 296.514 200.018 281.394 210.586C281.12 210.781 280.718 210.797 280.399 210.888C280.207 210.62 279.958 210.436 279.945 210.235C279.703 206.613 279.805 194.953 280.086 192.213ZM252.373 195.879C260.019 201.287 267.672 206.691 275.324 212.091C276.371 212.828 277.437 213.529 278.624 214.33C279.416 213.9 280.239 213.559 280.947 213.059C296.566 202.035 312.171 190.996 327.776 179.951C328.708 179.293 329.78 178.762 330.291 177.361C329.94 176.734 329.519 175.977 329.072 175.178V170.683C329.423 170.599 329.717 170.423 329.863 170.508C333.189 172.432 336.182 174.824 339.195 176.945C339.105 178.306 338.142 178.604 337.446 179.097C328.446 185.486 319.441 191.859 310.435 198.231C300.899 204.973 291.364 211.711 281.828 218.443C280.896 219.1 279.92 219.701 278.886 220.386C278.267 220.03 277.692 219.76 277.182 219.401C257.6 205.558 238.018 191.707 218.003 177.549C221.168 174.711 224.347 172.799 227.36 170.671C227.634 170.477 228.074 170.519 228.591 170.423V175.27C228.24 175.859 227.793 176.61 227.379 177.306C227.889 178.93 229.274 179.499 230.391 180.297C237.706 185.511 245.039 190.693 252.373 195.879ZM230.927 159.823C232.019 159.202 232.536 159.972 233.104 160.375C239.812 165.085 246.501 169.818 253.19 174.548C260.3 179.575 267.41 184.599 274.507 189.638C275.644 190.444 276.729 191.325 277.673 192.046C278.069 197.315 277.967 207.938 277.52 210.69C276.658 211.172 276.084 210.508 275.503 210.103C270.991 206.946 266.504 203.758 262.01 200.58C252.807 194.074 243.609 187.572 234.412 181.061C233.27 180.253 232.166 179.393 231.074 178.58C230.966 177.667 230.774 176.909 230.8 176.159C230.991 170.68 230.576 165.19 230.927 159.823ZM241.433 238.527C238.912 240.835 198.019 269.757 194.866 271.449C194.33 268.324 194.215 259.355 194.604 252.572C195.128 252.106 195.734 251.454 196.442 250.951C210.458 241.025 224.487 231.114 238.523 221.212C239.231 220.712 240.029 220.337 240.942 219.814C241.152 220.502 241.42 220.973 241.427 221.448C241.529 227.202 241.548 232.954 241.433 238.527ZM239.869 214.362C232.663 209.232 225.438 204.137 218.22 199.025C217.179 198.289 216.158 197.531 215.239 196.862C214.907 193.956 215.718 186.03 216.886 180.72C216.962 180.391 217.313 180.124 217.601 179.742C218.092 179.968 218.577 180.129 218.992 180.395C224.155 183.693 275.529 220.289 277.775 222.29V241.131C277.029 241.775 276.48 241.356 275.975 241.004C274.08 239.69 272.203 238.35 270.314 237.019C262.361 231.396 254.409 225.777 246.456 220.148C245.205 219.264 244.044 218.332 243.073 217.072C242.244 215.985 241.012 215.175 239.869 214.362ZM277.52 331.49C276.492 331.863 275.873 331.067 275.184 330.584C269.625 326.672 264.078 322.735 258.526 318.809C250.458 313.105 242.39 307.405 234.329 301.697C233.282 300.96 232.274 300.184 230.998 299.243C230.723 293.095 230.717 287.205 230.851 281.312C230.864 280.977 231.144 280.647 231.285 280.338C231.597 280.363 231.891 280.296 232.057 280.412C247.331 291.022 262.457 301.841 277.469 312.423C278.012 315.797 278.018 328.378 277.52 331.49ZM270.952 305.707C268.31 303.891 265.706 302.026 263.089 300.173C260.479 298.322 257.874 296.454 255.258 294.601C252.647 292.748 250.024 290.904 247.407 289.058C244.79 287.211 242.154 285.388 239.557 283.514C236.991 281.662 234.323 279.929 231.789 277.915C232.217 277.326 232.376 276.943 232.657 276.739C247.847 265.827 263.172 255.106 278.197 244.445C279.971 244.434 280.871 245.458 281.892 246.177C290.381 252.15 298.85 258.154 307.327 264.148C312.554 267.847 317.794 271.539 323.015 275.249C323.94 275.905 324.815 276.635 325.957 277.524C323.36 279.896 282.154 309.099 278.707 311.051C276.058 309.514 273.569 307.508 270.952 305.707ZM279.913 313.029C282.403 310.76 317.896 285.376 324.815 280.893C325.223 280.631 325.696 280.476 326.449 280.125C326.985 283.536 327.023 295.39 326.583 298.964C326.532 299.081 326.487 299.203 326.417 299.309C326.347 299.413 326.264 299.516 326.161 299.592C325.561 300.066 324.968 300.555 324.336 300.997C309.994 311.127 295.64 321.252 281.286 331.37C281.088 331.512 280.82 331.571 280.571 331.624C280.469 331.646 280.335 331.553 280.035 331.448C279.977 331.064 279.843 330.591 279.85 330.118C279.869 324.361 279.741 318.601 279.913 313.029ZM361.214 303.818C360.94 304.173 360.723 304.638 360.353 304.899C355.764 308.178 351.149 311.434 346.535 314.677C346.235 314.886 345.833 314.949 345.271 315.159C345.022 314.573 344.664 314.044 344.582 313.475C343.962 309.161 343.401 304.838 342.801 300.522C342.699 299.765 342.482 299.025 342.258 298.004C338.346 294.363 333.399 291.785 329.04 288.112C328.983 285.69 328.753 283.557 329.219 281.18C329.914 281.5 330.387 281.653 330.789 281.914C337.159 286.03 358.955 301.706 361.214 303.818ZM360.608 300.852C355.891 297.539 351.181 294.209 346.471 290.879C341.971 287.698 337.478 284.512 332.984 281.324C331.216 280.069 329.429 278.876 328.102 277.062C327.368 276.067 326.181 275.387 325.14 274.648C318.241 269.752 311.328 264.879 304.422 259.995C303.063 259.036 301.723 258.062 300.229 256.993C300.446 251.351 301.691 245.874 302.278 240.514C303.006 239.981 303.471 240.165 303.912 240.452C304.556 240.871 305.195 241.299 305.82 241.742C323.921 254.544 342.022 267.348 360.123 280.155C360.953 280.744 361.757 281.37 362.702 282.07C363.244 285.933 363.199 298.648 362.67 301.484C361.802 301.886 361.214 301.276 360.608 300.852ZM449.964 227.172C450.028 229.351 450.021 231.537 449.951 233.716C449.887 235.848 450.27 238.02 449.581 240.378C448.943 240.134 448.445 240.044 448.068 239.783C445.528 238.039 443.013 236.266 440.499 234.489C423.84 222.711 407.182 210.93 390.53 199.147C389.381 198.334 388.251 197.494 386.77 196.417C387.581 190.389 388.257 184.552 389.31 178.786C390.606 178.462 391.321 179.362 392.112 179.92C398.418 184.341 404.693 188.8 410.979 193.246C422.813 201.617 434.652 209.986 446.492 218.36C447.532 219.099 448.553 219.869 449.6 220.636C450.277 222.824 449.9 225.017 449.964 227.172ZM277.52 362.047C276.639 362.422 276.078 361.78 275.478 361.357C269.408 357.076 263.344 352.78 257.281 348.489C244.101 339.167 230.927 329.846 217.754 320.52C216.72 319.787 215.711 319.016 214.805 318.347C214.913 314.714 216.388 303.935 217.192 300.684C217.869 300.21 218.398 300.669 218.896 301.018C222.783 303.735 226.657 306.465 230.525 309.2C245.167 319.553 259.815 329.906 274.45 340.269C275.592 341.076 276.824 341.781 277.635 342.828C278.056 347.332 277.973 359.317 277.52 362.047ZM218.513 298.269C218.488 298.147 218.43 298.017 218.456 297.907C218.481 297.791 218.571 297.666 218.673 297.594C221.468 295.565 224.27 293.535 227.091 291.529C227.385 291.32 227.781 291.266 228.113 291.147C228.31 291.357 228.604 291.519 228.604 291.689C228.642 293.094 228.63 294.5 228.63 295.968C228.24 296.574 227.832 297.216 227.391 297.907C227.519 298.228 227.577 298.666 227.825 298.908C228.464 299.532 229.147 300.118 229.874 300.634C245.473 311.679 261.085 322.714 276.69 333.742C277.309 334.178 277.992 334.528 278.503 334.835C279.958 334.766 280.781 333.881 281.707 333.228C293.866 324.648 306.012 316.05 318.158 307.457C321.406 305.161 324.662 302.879 327.897 300.563C328.817 299.905 329.908 299.379 330.265 297.925C329.94 297.408 329.551 296.776 329.072 296.008C328.932 294.51 328.778 292.877 329.244 291.05C329.825 291.268 330.348 291.348 330.731 291.623C333.61 293.705 336.661 295.56 339.386 297.967C339.041 298.394 338.863 298.758 338.569 298.966C318.796 312.985 299.016 326.992 279.122 341.082C275.784 339.255 220.9 300.434 218.513 298.269ZM363.053 379.244C363.123 381.295 363.104 383.349 363.065 385.401C363.027 387.515 363.289 389.665 362.682 392.101C361.776 391.619 361.214 391.375 360.71 391.045C351.519 385.039 318.681 361.516 316.211 359.157V340.617C316.9 340.687 317.207 340.626 317.385 340.75C332.487 351.37 347.581 362.004 362.561 372.556C363.416 374.888 362.982 377.089 363.053 379.244ZM408.969 339.929C399.465 346.684 389.942 353.411 380.42 360.145C376.137 363.179 371.848 366.218 367.552 369.242C366.518 369.972 365.44 370.649 364.291 371.411C363.665 371.077 363.078 370.841 362.58 370.486C348.028 360.214 333.489 349.932 318.949 339.645C318.336 339.211 317.768 338.709 317.022 338.114C317.456 337.641 317.717 337.224 318.094 336.959C332.94 326.441 347.792 315.936 362.651 305.436C363.065 305.143 363.531 304.919 364.106 304.584C368.069 306.899 408.899 335.875 411.037 337.86C410.826 339.019 409.754 339.367 408.969 339.929ZM412.083 359.301C410.079 361.076 370.456 389.333 366.863 391.561C366.569 391.746 366.18 391.787 365.357 392.044V373.344C367.552 371.228 408.177 342.422 411.407 340.67C411.592 340.812 411.93 340.945 411.937 341.098C412.301 347.229 412.052 353.359 412.083 359.301ZM496.793 280.176C497.074 280.481 497.367 280.651 497.367 280.823C497.393 286.838 497.386 292.853 497.386 299.317C482.03 310.177 466.769 320.968 451.413 331.824C451.068 331.367 450.692 331.097 450.685 330.816C450.519 324.801 450.609 318.787 450.609 312.699C453.659 310.368 456.736 308.304 459.748 306.149C462.869 303.91 466.022 301.707 469.163 299.488C472.194 297.342 475.232 295.196 478.264 293.051C481.404 290.832 484.519 288.578 487.691 286.405C490.729 284.321 493.589 281.953 496.793 280.176ZM495.12 279.041C477.69 291.799 452.447 309.415 449.211 311.058C433.701 300.092 418.109 289.065 402.593 278.092C402.829 276.672 403.875 276.286 404.68 275.716C411.369 270.956 418.077 266.222 424.785 261.483C431.908 256.447 439.031 251.41 446.166 246.384C447.207 245.651 448.285 244.974 449.249 244.332C452.172 245.699 473.86 260.808 494.546 275.851C495.255 276.366 496.142 276.721 496.454 277.861C496.046 278.226 495.612 278.678 495.12 279.041ZM490.831 219.732C495.44 222.979 500.042 226.237 504.643 229.492C513.956 236.076 523.268 242.658 532.573 249.247C533.403 249.835 534.201 250.469 534.941 251.026C535.401 254.007 535.471 266.009 535.069 269.904C534.386 270.38 533.869 269.911 533.371 269.562C529.484 266.845 525.61 264.115 521.742 261.379C511.696 254.279 501.656 247.175 491.616 240.067C490.582 239.334 489.574 238.559 488.668 237.888C488.24 233.387 488.323 221.818 488.789 218.979C489.663 218.701 490.225 219.306 490.831 219.732ZM486.147 216.809C485.751 217.427 485.062 217.889 484.442 218.329C474.294 225.519 464.133 232.696 453.966 239.864C453.576 240.138 453.104 240.29 452.562 240.552C452.383 240.019 452.191 239.689 452.172 239.349C451.962 235.557 452.121 223.332 452.428 220.616C471.843 206.891 491.419 193.051 511 179.222C511.396 178.942 511.888 178.789 512.232 178.622C512.494 178.765 512.621 178.8 512.692 178.883C512.775 178.975 512.832 179.103 512.858 179.226C513.062 180.23 513.298 181.231 513.445 182.246C514.006 186.307 514.543 190.372 515.072 194.437C515.104 194.679 515.002 194.937 514.906 195.468C514.185 196.039 513.317 196.78 512.392 197.436C504.969 202.704 497.533 207.956 490.098 213.213C488.636 214.249 487.149 215.239 486.147 216.809ZM501.248 174.032C501.248 173.083 501.216 171.81 501.267 170.539C501.28 170.202 501.535 169.876 501.707 169.477C502.129 169.591 502.543 169.6 502.831 169.797C505.786 171.811 508.747 173.815 511.505 175.958C511.256 177.359 510.151 177.663 509.366 178.223C497.131 186.907 484.883 195.563 472.635 204.227C466.673 208.447 460.706 212.673 454.738 216.889C453.596 217.697 452.428 218.47 451.158 219.338C450.085 218.664 449.102 218.102 448.183 217.451C431.008 205.316 413.845 193.171 396.682 181.029C395.112 179.918 393.523 178.832 391.972 177.699C391.468 177.335 391.053 176.857 390.606 176.432C392.489 174.4 396.267 171.624 400.231 169.325C400.837 169.443 401.029 169.874 401.035 170.421C401.042 171.573 401.035 172.726 401.035 173.901C400.544 174.659 400.059 175.406 399.554 176.183C399.72 176.533 399.797 176.963 400.059 177.195C400.818 177.875 401.622 178.515 402.459 179.106C417.63 189.851 432.801 200.588 447.985 211.319C448.917 211.98 449.9 212.567 450.934 213.232C451.668 212.834 452.376 212.54 452.983 212.108C469.297 200.537 485.598 188.954 501.886 177.355C502.16 177.156 502.275 176.724 502.537 176.286C502.173 175.651 501.803 175.004 501.248 174.032ZM367.003 130.479C367.233 130.288 367.61 129.936 368.025 129.642C382.679 119.274 397.333 108.912 411.994 98.5591C412.288 98.351 412.677 98.2751 413.36 98.0032C413.717 101.266 413.775 112.404 413.468 116.991C412.837 117.524 412.115 118.231 411.298 118.809C397.589 128.518 383.879 138.213 370.156 147.896C369.244 148.538 368.44 149.429 367.195 149.477C366.684 146.734 366.563 136.087 367.003 130.479ZM368.21 151.346C383.719 140.396 399.223 129.436 414.719 118.466C415.543 117.883 416.296 117.193 417.381 116.309C416.832 115.344 416.456 114.688 416.041 113.952C415.836 112.408 415.862 110.806 416.111 109.116C418.919 110.227 423.547 113.418 426.061 115.876C425.978 116.1 425.972 116.409 425.812 116.534C420.24 120.941 368.286 157.402 365.708 158.74C363.021 157.349 308.284 118.723 305.418 116.196C305.463 115.961 305.418 115.621 305.559 115.508C308.539 113.1 311.641 110.866 314.884 108.9C315.177 109.168 315.496 109.322 315.503 109.487C315.541 110.763 315.522 112.043 315.522 113.62C315.184 114.258 314.711 115.145 314.271 115.976C314.883 117.506 316.224 118.12 317.354 118.925C323.825 123.542 330.323 128.133 336.814 132.725C345.405 138.798 353.996 144.867 362.593 150.93C363.531 151.592 364.508 152.201 365.599 152.924C366.493 152.388 367.393 151.924 368.21 151.346ZM281.413 70.5007C282.154 69.8708 282.875 69.1546 283.692 68.5738C297.708 58.6449 311.73 48.7313 325.753 38.8221C326.359 38.3932 326.921 37.7958 327.783 37.9554C327.942 38.1405 328.229 38.3153 328.236 38.5043C328.549 44.5136 328.414 50.5203 328.325 56.5654C323.902 60.1308 284.624 87.766 281.969 89.2052C281.784 88.9219 281.439 88.6327 281.433 88.3417C281.407 82.4498 281.413 76.5579 281.413 70.5007ZM232.344 38.863C232.376 38.5126 232.6 38.1788 232.797 37.6796C233.321 37.9005 233.799 38.0275 234.195 38.2815C241.031 42.6715 277.06 68.4691 279.307 70.5978C279.728 80.2388 279.594 86.4326 278.867 89.2282C278.401 89.0329 277.922 88.9072 277.526 88.6544C270.627 84.2408 234.706 58.5198 232.587 56.4914C232.274 54.1393 232.089 42.0831 232.344 38.863ZM229.427 56.5226C230.187 57.2088 230.978 57.8624 231.815 58.4521C247.094 69.2727 262.387 80.085 277.686 90.8884C278.509 91.4692 279.396 91.9549 280.271 92.4962C280.845 92.2287 281.343 92.0787 281.745 91.7922C298.18 80.152 314.603 68.5017 331.019 56.8373C331.312 56.6279 331.478 56.2367 331.848 55.7376C331.472 55.0489 331.07 54.3002 330.578 53.3989C330.502 51.9386 330.259 50.3174 330.859 48.4421C334.529 50.4603 337.573 52.956 340.701 55.1306C340.675 56.4594 339.724 56.7805 339.035 57.2732C332.87 61.6633 326.691 66.0335 320.513 70.405C308.367 78.9974 296.215 87.5891 284.062 96.1764C282.92 96.9851 281.745 97.753 280.443 98.6389C276.135 96.0207 272.203 92.95 268.112 90.1199C264.104 87.346 260.147 84.5012 256.17 81.6871C252.086 78.7989 248.001 75.9107 243.916 73.0219C239.933 70.2071 235.95 67.4032 231.98 64.5744C227.928 61.6888 223.804 58.9027 219.598 55.7273C222.904 52.7951 226.332 50.7125 229.881 48.1447C230.455 50.3059 230.251 51.9252 230.181 53.4806C229.727 54.1885 229.325 54.8216 228.904 55.4803C229.089 55.8646 229.172 56.2897 229.427 56.5226ZM144.807 119.783C149.818 123.358 154.847 126.908 159.87 130.462C169.923 137.57 179.975 144.678 190.034 151.777C191.075 152.51 192.147 153.185 193.111 153.824C194.828 153.608 195.83 152.541 196.959 151.747C207.446 144.365 217.913 136.955 228.387 129.553C232.995 126.295 237.604 123.04 242.205 119.771C243.233 119.039 244.42 118.442 244.943 116.931C244.605 116.392 244.209 115.763 243.731 114.999V110.22C244.107 110.192 244.407 110.075 244.586 110.175C245.365 110.615 246.124 111.088 246.858 111.605C249.252 113.3 251.632 115.019 253.975 116.697C253.783 117.141 253.751 117.455 253.579 117.576C234.138 131.387 214.677 145.184 195.217 158.971C194.713 159.331 194.119 159.572 193.545 159.881C192.996 159.633 192.485 159.495 192.083 159.209C172.604 145.443 153.13 131.664 133.67 117.873C133.376 117.666 133.204 117.285 132.872 116.84C135.846 114.551 138.891 112.429 141.98 110.38C142.254 110.195 142.689 110.236 143.116 110.16C143.518 111.755 143.352 113.281 143.301 114.81C142.861 115.572 142.433 116.322 142.057 116.975C142.561 118.488 143.78 119.053 144.807 119.783ZM59.4919 180.146C66.2829 184.985 73.0931 189.801 79.8969 194.616C88.1687 200.469 96.4469 206.317 104.725 212.158C105.765 212.892 106.844 213.576 108.114 214.427C109.167 213.759 109.946 213.312 110.674 212.797C125.966 201.985 141.259 191.171 156.532 180.334C157.649 179.539 159.021 178.956 159.596 177.339C159.2 176.651 158.766 175.892 158.351 175.162V170.588C158.734 170.552 159.041 170.422 159.213 170.521C161.798 171.973 166.744 175.602 168.557 177.364C168.078 178.458 166.987 178.945 166.081 179.587C157.713 185.528 149.333 191.452 140.952 197.375C131.002 204.408 121.052 211.438 111.095 218.462C110.163 219.119 109.193 219.721 108.312 220.301C104.693 218.37 68.2998 192.865 49.9053 179.382C49.1904 178.862 48.5457 178.255 47.9585 177.766C47.9011 176.822 48.4564 176.438 48.967 176.085C51.7817 174.156 54.3986 171.91 57.6345 170.319C58.1004 172.081 57.8962 173.611 57.8707 175.105C57.4558 175.923 57.0601 176.703 56.7155 177.387C57.2325 178.881 58.4707 179.417 59.4919 180.146ZM287.968 385.47C279.02 382.138 270.62 383.326 262.783 388.671C259.291 391.052 255.883 393.555 252.424 395.974C251.83 396.389 251.141 396.666 250.522 396.992C250.247 396.625 249.986 396.436 249.979 396.243C249.928 392.019 249.909 387.795 249.883 383.571C249.877 382.296 249.883 381.022 249.883 379.759C250.56 379.157 251.09 378.599 251.696 378.163C255.449 375.484 259.221 372.833 262.987 370.172C265.84 368.156 268.904 366.528 272.344 365.889C278.382 364.769 284.33 364.967 289.915 367.872C291.268 368.573 292.576 369.456 293.687 370.489C296.623 373.225 298.685 378.136 295.589 383.454C294.683 385.015 293.559 386.401 291.83 387.171C290.515 386.589 289.27 385.954 287.968 385.47ZM282.498 390.605C279.99 389.851 277.494 389.753 274.929 390.406C270.761 391.464 267.921 393.884 266.491 397.98C266.976 403.581 271.131 405.528 275.695 407.251C276.109 410.39 276.154 413.513 275.714 416.629C275.273 416.629 274.973 416.722 274.788 416.615C272.491 415.286 252.813 401.179 250.93 399.514C251.352 399.087 251.715 398.601 252.188 398.264C255.73 395.732 259.291 393.24 262.84 390.718C266.899 387.833 271.431 386.021 276.358 385.749C280.807 385.503 285.256 386.07 290.164 388.641C289.257 389.251 288.836 389.539 288.409 389.821C287.56 390.385 286.711 390.946 285.747 391.588C284.668 391.261 283.583 390.931 282.498 390.605ZM275.586 404.622C274.546 404.61 273.684 404.638 273.173 403.738C273.518 402.582 274.603 403.128 275.133 402.69C275.937 403.206 275.982 403.757 275.586 404.622ZM275.656 400.193C273.907 400.881 272.261 401.53 270.761 402.122C269.555 401.823 269.114 401.066 269.044 400.127C268.967 398.987 269.025 397.838 269.025 396.729C270.237 393.926 272.433 393.066 274.667 392.548C277.386 391.919 280.175 391.737 283.066 393.112C282.613 393.649 282.358 394.081 281.988 394.364C280.973 395.14 279.926 395.874 278.867 396.586C277.463 397.527 276.25 398.63 275.656 400.193ZM365.274 403.26C365.861 402.726 366.289 402.247 366.806 401.884C386.043 388.28 405.292 374.687 424.549 361.102C424.74 360.967 425.027 360.953 425.27 360.912C425.391 360.892 425.519 360.94 425.736 360.97C425.889 361.409 426.138 361.875 426.208 362.367C426.853 366.671 427.472 370.978 428.065 375.288C428.206 376.294 428.193 377.32 428.257 378.486C427.599 379.046 426.968 379.665 426.259 380.169C407.131 393.71 387.989 407.241 368.848 420.765C367.923 421.421 366.952 422.011 366.04 422.604C365.733 422.33 365.408 422.183 365.401 422.022C365.114 415.759 365.293 409.496 365.274 403.26ZM414.496 356.306V351.878C415.102 351.343 415.536 351.597 415.951 351.893C418.568 353.741 421.191 355.588 423.795 357.454C424.089 357.665 424.3 357.999 424.593 358.331C424.28 359.46 423.24 359.836 422.455 360.396C412.313 367.598 402.159 374.774 391.998 381.952C383.834 387.725 375.665 393.496 367.495 399.259C366.455 399.99 365.382 400.667 364.253 401.416C363.614 401.054 363.04 400.793 362.529 400.435C343.069 386.652 323.615 372.861 304.174 359.058C304.001 358.937 303.963 358.627 303.778 358.212C304.186 357.845 304.608 357.378 305.112 357.034C307.856 355.165 310.62 353.324 313.384 351.486C313.454 351.44 313.62 351.543 313.92 351.624C314.226 353.048 314.118 354.555 314.035 356.15C313.62 356.854 313.173 357.612 312.726 358.38C312.937 358.779 313.045 359.182 313.301 359.419C313.958 360.023 314.654 360.592 315.388 361.108C330.77 371.996 346.158 382.878 361.559 393.749C362.376 394.33 363.27 394.816 364.221 395.404C365.044 394.883 365.816 394.445 366.538 393.935C382.647 382.52 398.75 371.098 414.847 359.663C415.141 359.455 415.307 359.071 415.664 358.596C415.294 357.874 414.905 357.108 414.496 356.306ZM510.234 300.586C510.413 300.461 510.72 300.524 511.141 300.483C511.288 301.051 511.485 301.636 511.575 302.237C512.27 307.057 512.947 311.879 513.604 316.704C513.675 317.195 513.566 317.709 513.541 318.122C511.051 320.338 454.317 360.469 451.208 362.216C451.023 361.943 450.672 361.662 450.672 361.38C450.653 355.355 450.666 349.329 450.692 343.303C450.692 343.058 450.826 342.814 450.992 342.268C470.599 328.464 490.41 314.518 510.234 300.586ZM507.841 300.008C495.606 308.685 483.358 317.34 471.109 326C464.829 330.44 458.548 334.881 452.262 339.315C451.426 339.901 450.564 340.44 449.402 341.206C429.406 327.039 409.633 313.036 389.872 299.022C389.585 298.815 389.4 298.454 389.176 298.175C391.002 296.08 396.35 292.286 399.197 291.103C399.778 292.591 399.446 294.106 399.51 295.635C399.044 296.387 398.584 297.14 398.106 297.921C398.259 298.283 398.31 298.727 398.559 298.961C399.306 299.656 400.097 300.319 400.927 300.909C416.207 311.721 431.493 322.523 446.785 333.319C447.615 333.906 448.49 334.424 449.421 335.022C450.251 334.551 451.068 334.183 451.783 333.673C468.071 322.075 484.347 310.463 500.61 298.837C500.782 298.715 500.795 298.378 500.961 297.926C500.654 297.411 500.278 296.772 499.805 295.983C499.639 294.512 499.365 292.891 500.144 291.065C503.839 292.909 506.75 295.595 509.973 297.617C509.717 299.104 508.639 299.443 507.841 300.008ZM597.152 239.111C597.261 239.052 597.395 239.021 597.522 239.017C597.643 239.014 597.771 239.06 598.116 239.128C598.473 240.891 598.869 242.738 599.048 244.627C599.431 248.683 600.439 252.673 600.516 256.636C598.339 258.511 540.469 299.575 538.618 300.547C538.433 300.646 538.139 300.537 537.89 300.525C537.386 297.755 537.29 285.957 537.737 281.434C537.788 281.316 537.826 281.19 537.89 281.084C537.96 280.979 538.05 280.887 538.145 280.802C538.331 280.629 538.516 280.448 538.726 280.3C557.867 266.76 577.015 253.223 596.163 239.689C596.476 239.47 596.814 239.293 597.152 239.111ZM586.461 234.137C586.41 232.806 586.225 231.287 586.602 229.815C586.972 229.773 587.285 229.632 587.444 229.734C589.678 231.231 591.899 232.744 594.101 234.288C595.027 234.938 595.895 235.668 596.833 236.394C596.335 237.752 595.218 238.225 594.318 238.867C587.208 243.923 580.079 248.95 572.956 253.987C561.85 261.84 550.744 269.696 539.639 277.543C538.598 278.276 537.526 278.953 536.55 279.606C533.052 277.647 489.127 246.813 477.492 238.167C476.994 237.796 476.547 237.349 476.132 236.98C476.234 236.597 476.222 236.254 476.375 236.143C479.279 234.04 482.196 231.959 485.125 229.901C485.279 229.791 485.598 229.913 485.974 229.934C486.459 231.4 486.249 232.921 486.159 234.327C485.7 235.21 485.298 235.982 484.953 236.653C485.528 238.147 486.74 238.705 487.768 239.435C496.346 245.523 504.937 251.597 513.528 257.672C520.127 262.339 526.727 267.004 533.339 271.66C534.271 272.32 535.248 272.924 536.186 273.539C537.718 273.146 538.758 272.154 539.894 271.355C551.951 262.851 563.995 254.324 576.039 245.804C578.975 243.73 581.917 241.671 584.84 239.581C585.874 238.843 587.029 238.225 587.802 236.812C587.425 236.056 586.985 235.182 586.461 234.137ZM536.384 182.935C539.518 184.569 562.871 200.894 581.719 214.628C582.326 215.071 582.874 215.595 583.857 216.423C583.251 216.796 582.798 217.028 582.396 217.33C575.043 222.859 539.275 247.917 536.435 249.515C533.109 247.739 511.447 232.594 491.099 217.81C490.493 217.367 489.944 216.839 489.242 216.244C489.81 215.714 490.238 215.243 490.736 214.868C499.85 208.005 533.41 184.541 536.384 182.935ZM643.77 278.666C643.764 271.865 643.707 265.063 643.783 258.263C643.815 255.238 642.845 252.727 640.592 250.744C639.149 249.476 637.694 248.21 636.13 247.099C627.042 240.622 617.921 234.19 608.807 227.746C594.663 217.745 580.526 207.742 566.375 197.751C565.348 197.026 564.397 196.126 563.133 195.87C562.15 196.353 561.244 196.793 560.216 197.297C552.219 191.646 544.266 186.026 536.358 180.438C536.237 179.124 536.135 177.983 536.046 176.997C535.037 175.373 533.563 174.544 532.21 173.585C525.725 168.978 519.221 164.4 512.724 159.807C474.696 132.916 436.675 106.022 398.648 79.1327C397.397 78.2474 396.121 77.3947 394.812 76.4973C393.695 77.0168 392.68 77.4917 391.551 78.0177C383.534 72.3581 375.531 66.8192 367.731 61.1175C367.597 59.7963 367.488 58.6583 367.393 57.6951C366.231 55.9967 364.642 55.1089 363.18 54.0774C340.458 37.9917 317.692 21.961 295.021 5.80507C290.528 2.60542 285.9 0.0963788 280.06 0C275.114 0.373388 270.812 2.80264 266.727 5.82421C262.598 8.87514 258.36 11.7735 254.173 14.737C210.49 45.628 166.808 76.519 123.12 107.409C85.9348 133.706 48.7437 160.002 11.5525 186.298C9.66964 187.632 7.73567 188.905 5.91025 190.32C3.37638 192.289 0.836115 194.291 0 197.71V231.587C0.644638 233.812 1.74251 235.366 3.26156 236.619C4.74231 237.84 6.1911 239.113 7.76121 240.221C31.0001 256.685 54.2582 273.128 77.5162 289.572C144.986 337.271 212.456 384.969 279.92 432.67C303.286 449.188 326.634 465.718 350.013 482.219C351.577 483.324 353.198 484.417 354.94 485.19C358.521 486.779 362.242 487.344 366.193 486.517C369.422 485.84 372.205 484.409 374.854 482.538C388.468 472.903 402.095 463.284 415.709 453.654C464.95 418.838 514.179 384.019 563.414 349.201C587.719 332.015 612.03 314.836 636.315 297.626C637.879 296.519 639.303 295.211 640.739 293.939C642.89 292.038 643.841 289.622 643.777 286.75C643.719 284.056 643.77 281.361 643.77 278.666Z" fill="#555970" stroke="#555970"/>
<path d="M109.627 157.998C111.12 158.951 112.633 159.892 114.114 160.871C114.362 161.038 114.509 161.371 114.777 161.724C114.369 161.724 114.069 161.818 113.922 161.709C112.403 160.575 110.903 159.408 109.397 158.251C107.335 157.338 105.548 156.044 103.978 154.442C102.555 153.614 101.131 152.786 99.7528 151.985C98.6486 152.081 98.0805 152.709 97.8316 153.645C97.6338 154.389 97.4232 155.1 96.5807 155.921C96.7721 153.574 96.9317 151.577 97.0849 149.587C97.3466 149.52 97.6465 149.339 97.7742 149.423C100.008 150.894 102.338 152.229 104.214 154.178C106.289 155.066 108.056 156.392 109.627 157.998ZM97.8124 146.816C97.4933 146.647 97.0785 146.673 96.5934 146.592C95.9871 147.183 95.3616 147.793 94.9914 148.15C94.7553 151.042 94.551 153.567 94.334 156.168C94.9084 157.121 95.7445 157.855 96.8934 158.184C98.4571 157.19 98.4572 157.19 100.193 154.426C105.255 157.389 109.722 161.261 114.924 164.385C116.335 163.56 117.509 163.012 117.854 161.606C117.369 160.276 116.169 159.692 115.141 158.958C110.016 155.312 104.884 151.689 99.7464 148.064C99.1209 147.621 98.4826 147.178 97.8124 146.816Z" fill="#555970" stroke="#555970"/>
<path d="M278.912 277.592C279.499 278.585 280.093 279.579 280.769 280.511C281.516 281.546 282.384 282.498 283.169 283.51C283.82 284.355 285.007 284.853 285.103 286.272C281.191 284.121 277.616 278.857 276.889 273.94C277.712 275.432 278.286 276.527 278.912 277.592ZM275.989 270.802C276.046 270.909 276.059 270.94 275.989 270.802V270.802ZM265.266 275.73C265.138 275.456 264.947 275.164 264.985 275.132C267.96 272.574 271.285 270.521 274.278 268.371C275.676 268.712 275.855 269.518 275.829 270.437C275.248 270.246 274.668 270.053 273.851 269.783C271.074 271.706 268.177 273.714 265.266 275.73ZM285.186 288.409C286.367 287.814 287.624 287.248 287.86 285.468C282.652 280.836 279.097 275.202 277.75 268.108C276.87 267.353 275.925 266.539 274.897 265.656C272.229 267.147 263.39 273.243 261.89 274.633C261.551 274.947 261.373 275.437 261.162 275.781C262.579 277.718 262.592 277.7 264.653 278.272C267.072 276.58 269.581 274.817 272.102 273.077C272.606 272.731 273.117 272.273 273.819 272.607C276.538 280.527 280.335 285.835 285.186 288.409Z" fill="#555970" stroke="#555970"/>
<path d="M268.188 28.299C267.358 29.5201 266.944 30.129 266.516 30.7583C266.478 31.6308 266.433 32.4969 266.401 33.312C265.667 33.7677 265.373 33.2846 265.259 32.8391C264.71 30.7909 265.571 29.4435 268.188 28.299ZM277.813 29.282C277.902 30.3166 278.017 31.567 278.132 32.9035C277.628 33.2935 277.136 33.6707 276.709 34.0001C276.447 33.8877 276.332 33.838 276.217 33.7882C276.575 32.9731 276.932 32.1574 277.226 31.4929C277.175 29.9107 276.039 29.1179 275.215 28.0482C276.428 27.8005 277.06 28.3839 277.813 29.282ZM288.14 34.9805C288.549 35.5945 288.893 36.3534 288.957 37.0753C289.123 39.0545 288.242 40.4868 286.295 41.3472C288.421 36.7363 288.019 37.9082 285.97 33.8335C287.017 33.6426 287.668 34.2707 288.14 34.9805ZM265.929 35.9532C267.416 35.6474 268.373 34.8885 269.037 33.6222C269.011 32.5742 267.958 31.4808 269.452 29.9126C271.124 28.9935 273.001 28.5448 274.781 30.2515C274.749 31.8204 274.743 31.8166 273.741 33.4429C273.556 33.739 273.562 34.152 273.447 34.669C274.188 35.3034 274.928 35.9468 275.681 36.5914C276.856 35.9793 277.839 35.3711 278.885 34.9447C281.413 33.9216 283.621 34.4373 285.568 36.5602C285.51 37.2642 285.447 37.9976 285.396 38.5994C282.881 41.2208 280.06 40.137 277.277 39.5945C276.434 40.5679 274.998 40.9113 274.883 42.5293C276.026 44.3356 277.941 44.7453 279.843 44.9458C284.387 45.4232 287.763 43.2773 290.374 39.8026C291.567 38.2235 291.536 36.3955 290.457 34.7379C288.855 32.264 286.621 30.6268 283.647 30.1858C282.645 30.0377 281.623 30.0575 280.526 29.9956C278.515 25.6324 275.018 24.0935 270.448 24.8281C268.501 25.1396 266.829 26.0728 265.405 27.4469C264.103 28.7031 262.782 29.9432 262.846 32.0585C263.312 33.7843 264.18 35.2645 265.929 35.9532Z" fill="#555970" stroke="#555970"/>
<path d="M194.618 216.038C194.784 216.16 194.854 216.418 194.956 216.63C195.977 217.074 197.005 217.519 198.147 218.016C198.85 217.692 199.641 217.332 200.777 216.812C200.496 217.763 200.305 218.4 200.062 219.234C200.962 220.138 201.926 221.102 202.896 222.075C202.717 222.218 202.558 222.386 202.52 222.363C201.103 221.518 199.698 220.655 198.192 219.738C194.905 221.231 192.397 223.937 189.167 225.509C188.688 225.216 188.255 224.953 187.706 224.616C186.595 220.207 185.931 215.663 185.14 211.143C185.082 210.807 185.274 210.427 185.363 209.997C185.784 210.082 186.218 210.053 186.493 210.247C189.218 212.152 191.924 214.089 194.618 216.038ZM182.791 209.794C183.678 214.657 184.616 219.788 185.51 224.655C186.735 226.074 187.769 227.165 189.403 227.527C192.461 225.865 194.969 223.414 198.09 221.832C199.826 222.871 201.447 223.836 202.973 224.748C204.428 224.302 205.424 223.579 206.024 222.394C205.794 220.425 203.554 220.226 202.877 218.694C203.171 217.997 203.451 217.315 203.707 216.693C203.011 215.365 202.015 214.65 200.643 214.233C200.241 214.431 199.794 214.663 199.341 214.878C198.888 215.09 198.435 215.285 197.962 215.496C193.609 212.922 189.901 209.544 185.689 207.232C184.259 207.628 183.455 208.384 182.791 209.794Z" fill="#555970" stroke="#555970"/>
<path d="M201.841 100.324C202.792 99.5263 203.73 98.7094 204.713 97.9434C204.956 97.7507 205.326 97.7194 205.747 97.5777C205.639 97.9403 205.639 98.2415 205.505 98.3309C204.356 99.084 203.188 99.7989 202.02 100.525C200.214 102.57 197.75 103.692 195.637 105.368C194.086 104.445 193.691 103.092 193.627 101.717C193.544 100.065 193.691 98.396 193.831 96.7416C193.997 94.6895 194.099 92.6547 193.384 90.4029C192.944 89.7915 192.357 88.9745 191.75 88.1351C192.044 88.0368 192.299 87.8524 192.453 87.9143C194.686 88.806 195.267 90.8012 195.452 92.8724C195.586 94.3813 195.369 95.9303 195.21 97.4513C195.05 98.9711 194.699 100.477 195.095 102.207C195.465 102.519 195.931 102.916 196.474 103.382C198.337 102.321 200.086 101.322 201.841 100.324ZM181.462 94.2064C181.175 94.274 180.811 94.4368 180.753 94.3627C179.139 92.2705 179.515 90.6059 181.87 89.3051C181.877 89.3013 181.998 89.503 182.074 89.6166C181.774 90.2989 181.475 90.9857 181.136 91.7458C181.245 92.5373 181.353 93.3747 181.462 94.2064ZM197.501 93.2139C197.418 89.0504 194.986 85.9235 191.01 84.7255C186.9 83.486 183.53 84.8915 180.402 87.5173C176.988 90.3799 176.649 93.5292 180.402 96.3912C180.587 96.5348 180.868 96.5533 181.194 96.6567C182.464 96.4429 183.466 95.7452 184.162 94.4668C184.028 93.2004 182.783 91.9418 183.919 90.4897C186.166 89.0415 186.683 88.8736 188.412 88.9949C189.625 89.0798 190.646 89.5036 191.399 90.7284C191.967 92.1748 191.923 93.8387 191.814 95.4995C191.719 97.032 191.482 98.5594 191.45 100.092C191.387 103.238 192.478 105.798 195.299 107.369C197.59 106.129 206.743 99.8327 208.339 98.3424C208.683 98.0239 208.843 97.5088 209.117 97.0358C208.249 95.9303 207.464 94.9442 205.92 94.7036C204.452 95.2518 203.239 96.4333 201.829 97.2937C200.456 98.1349 199.365 99.5053 197.405 99.8314C197.373 99.0253 197.316 98.4202 197.329 97.8171C197.373 96.282 197.533 94.7463 197.501 93.2139Z" fill="#555970" stroke="#555970"/>
<path d="M276.608 154.605C276.595 154.79 276.614 154.984 276.557 155.154C276.531 155.238 276.372 155.277 275.721 155.657C276.276 155.003 276.442 154.804 276.608 154.605ZM286.533 154.221C286.367 154.161 286.207 154.101 286.041 154.041C286.424 153.68 286.443 154.014 286.533 154.221ZM291.052 159.099C290.816 160.468 290.413 161.625 289.15 162.258C288.492 161.811 288.971 161.405 289.182 161.052C290.19 159.384 289.75 157.924 288.594 156.551C287.975 155.816 287.35 155.084 286.731 154.351C289.462 154.775 290.624 156.635 291.052 159.099ZM273.468 159.285C273.085 158.998 272.517 158.703 272.121 158.258C270.372 156.294 268.311 154.592 266.76 152.29C268.4 150.795 269.938 149.509 271.891 148.813C272.421 147.896 273.238 147.344 274.227 146.975C273.889 148.047 273.889 148.047 272.038 148.975C270.985 150.044 269.925 151.112 268.789 152.267C269.836 154.349 271.642 155.593 272.887 157.151C273.659 157.283 274.253 157.384 274.827 157.481C275.089 158.534 274.47 158.917 273.468 159.285ZM274.61 153.493C274.291 153.868 273.844 154.134 273.506 154.411C272.332 154.003 271.706 153.296 271.444 152.039C272.415 151.313 273.442 150.565 274.438 149.784C275.536 148.929 276.882 148.346 277.61 146.917C277.176 145.453 276.008 144.766 274.751 144.221C272.325 145.416 266.753 149.215 264.915 150.97C264.673 151.207 264.59 151.616 264.449 151.903C266.153 154.355 270.2 158.689 273.321 161.38C274.783 161.027 275.81 160.321 276.704 159.217C277.029 158.358 277.393 157.409 277.687 156.633C279.289 155.21 281.012 154.895 282.869 155.132C284.586 155.351 286.022 156.119 287.043 157.344C287.586 158.482 287.624 159.457 286.846 160.631C286.258 160.909 285.48 161.35 284.65 161.649C282.844 162.302 281.172 161.026 279.359 161.132C278.312 161.879 277.163 162.482 276.978 163.979C278.019 165.533 279.627 165.924 281.286 166.217C283.361 166.583 285.378 166.364 287.299 165.484C289.686 164.387 291.652 162.813 292.781 160.473C293.024 156.883 292.73 156.112 290.445 153.881C285.531 149.085 278.172 149.292 274.61 153.493Z" fill="#555970" stroke="#555970"/>
<path d="M461.133 161.224C460.175 162.92 460.162 162.909 458.701 163.669C459.799 161.591 459.799 161.591 459.901 159.392C458.975 157.144 457.112 155.612 455.337 154.046H453.748C453.62 153.977 453.474 153.942 453.41 153.851C452.765 152.978 452.14 152.096 451.329 150.97C455.28 152.597 458.305 154.852 460.073 157.29C460.935 158.474 461.465 159.718 461.133 161.224ZM451.674 158.697C451.476 157.822 451.789 157.508 453.212 157.63C452.478 158.14 452.108 158.395 451.674 158.697ZM451.055 155.286C450.167 156.871 448.617 157.293 446.887 157.343C445.157 157.393 443.606 156.903 442.336 155.69C441.928 155.301 441.864 155.048 441.64 153.213C442.023 152.161 442.821 151.583 443.874 151.328C445.961 150.822 447.94 151.107 449.753 152.277C450.799 152.952 451.386 153.881 451.055 155.286ZM437.836 154.431C438.372 151.985 438.411 152.004 440.351 150.91C440.077 152.034 439.789 153.077 439.579 154.136C439.508 154.493 439.643 154.889 439.706 155.504C440.211 156.147 440.874 156.912 441.436 157.745C441.679 158.103 441.749 158.578 441.883 159.011C439.994 157.971 438.13 156.91 437.836 154.431ZM452.554 148.671C450.621 147.572 448.54 146.965 446.331 146.859C442.649 146.681 439.521 147.893 437.109 150.74C435.373 152.79 435.271 155.016 436.904 157.044C438.538 159.07 440.517 160.691 443.057 161.489C447.212 162.794 450.908 162.17 453.939 158.842C454.52 158.198 455.076 157.522 455.707 156.784C457.022 157.712 457.782 158.816 458.005 160.46C456.378 163.719 453.563 162.434 450.882 162.058C450.078 162.805 449.255 163.572 448.253 164.506C448.744 165.16 448.929 165.517 449.216 165.758C449.599 166.085 450.033 166.399 450.493 166.587C454.367 168.16 457.756 167.238 460.82 164.573C462.952 162.716 463.973 160.559 462.811 157.741C460.297 153.704 456.614 150.977 452.554 148.671Z" fill="#555970" stroke="#555970"/>
<path d="M525.048 212.606C525.578 211.948 526.05 212.122 526.446 212.456C527.614 213.418 528.412 214.805 529.95 215.542C531.654 214.892 533.046 213.92 534.029 212.12C533.454 211.412 532.905 210.739 532.363 210.058C531.903 209.477 531.45 208.886 530.799 208.048C531.463 207.981 531.903 207.801 532.063 207.94C533.288 209.034 534.463 210.19 535.599 211.271C536.486 211.072 537.201 210.912 538.069 210.718C537.743 211.47 537.501 212.033 537.194 212.739C537.999 214.593 539.645 215.819 541.203 217.332C542.026 217.07 542.849 216.809 543.673 216.547C544.088 216.135 544.509 215.722 545.077 215.161C545.421 216.535 544.515 216.548 543.921 216.825C543.558 217.484 543.2 218.143 542.766 218.94C543.807 220.218 544.834 221.479 545.855 222.734C545.549 223 545.383 223.149 545.051 223.44C543.807 222.231 542.543 221.005 541.158 219.666C540.207 219.967 539.281 220.26 538.356 220.554C537.826 221.368 537.297 222.178 536.843 222.88C537.297 224.821 539.537 225.412 539.741 227.286C539.518 227.44 539.352 227.583 539.326 227.562C537.884 226.353 536.448 225.131 534.992 223.897C534.246 224.136 533.544 224.363 532.848 224.586C532.293 223.624 533.563 223.339 533.48 222.139C532.714 220.64 531.061 219.445 529.886 218.194C528.106 217.677 527.378 219.218 526.05 219.403C525.718 218.6 526.529 218.459 526.835 218.058C527.212 217.567 527.608 217.086 528.106 216.459C527.499 215.69 526.976 215.011 526.44 214.337C525.974 213.747 525.502 213.165 525.048 212.606ZM522.457 219.582C523.121 220.808 524.104 221.55 525.553 221.974C526.663 221.315 527.844 220.611 529.088 219.872C530.008 220.51 530.939 220.938 531.029 222.095C530.467 222.953 529.931 223.778 529.369 224.64C530.371 225.718 531.15 226.747 532.561 226.883C533.384 226.582 534.194 226.285 534.846 226.046C536.754 227.124 537.501 229.188 539.498 229.85C540.813 229.306 541.943 228.584 542.383 227.199C541.751 225.384 539.798 224.597 539.269 222.61C539.875 222.284 540.398 222.003 540.813 221.78C542.722 222.79 543.424 224.88 545.262 225.58C547.253 224.698 547.247 224.694 548.453 222.845C547.413 221.515 546.34 220.135 545.345 218.861C546.015 217.192 548.057 216.941 548.249 214.941C547.438 213.983 546.577 212.918 544.956 212.807C543.883 213.475 542.811 214.139 541.573 214.91C540.839 214.109 540.188 213.399 539.607 212.766C540.271 211.739 540.8 210.925 541.432 209.961C540.379 209.13 539.498 208.435 538.547 207.688C537.303 208.149 536.499 208.447 535.854 208.685C534.124 207.599 533.32 205.81 531.514 205.031C530.193 205.595 529.05 206.314 528.501 207.852C529.491 209.131 530.48 210.418 531.386 211.597C531.054 212.527 530.55 212.809 529.618 212.701C528.437 211.628 527.123 210.441 525.84 209.273C524.263 209.671 523.236 210.515 522.572 211.69C522.891 213.706 525.182 214.314 525.393 216.168C524.582 217.532 522.661 217.823 522.457 219.582Z" fill="#555970" stroke="#555970"/>
<path d="M354.315 89.991C354.27 90.478 354.347 90.8373 354.2 91.0562C352.955 92.9813 353.581 94.7448 354.749 96.3596C355.636 97.5857 356.721 98.6778 357.997 99.4482C358.578 99.394 359.063 99.3486 359.663 99.2925C360.244 100.176 360.857 101.11 361.482 102.068C361.176 102.156 360.876 102.343 360.748 102.262C359.038 101.177 357.302 100.114 355.661 98.9229C354.417 98.0223 353.447 96.8415 352.783 95.4201C351.762 93.22 352.023 92.1368 354.315 89.991ZM362.631 94.2144C362.376 94.5935 362.153 95.0033 361.846 95.3307C361.648 95.542 361.304 95.6186 360.819 95.8592C361.157 94.7512 361.948 94.5393 362.631 94.2144ZM363.014 94.2093C362.912 94.1991 362.81 94.1882 362.708 94.1774C362.714 94.1748 362.714 94.1723 362.721 94.1703C362.816 94.1831 362.918 94.1965 363.014 94.2093ZM368.261 95.4099C370.137 95.8535 371.994 96.5466 372.524 99.1808C372.256 99.6971 372.026 100.15 371.739 100.71C368.535 102.501 365.478 102.291 362.389 99.8771C362.344 99.0614 362.293 98.2055 362.248 97.4262C363.959 95.4922 365.995 94.8731 368.261 95.4099ZM375.862 99.2516C375.824 100.42 375.581 100.819 373.903 102.294C373.162 101.447 374.337 101.036 374.343 100.361C374.343 99.6039 374.407 98.8476 374.439 98.0651C373.469 96.7751 372.518 95.519 371.573 94.2642C372.518 94.7786 373.526 95.2133 374.362 95.8701C375.403 96.6883 375.907 97.8787 375.862 99.2516ZM352.438 98.0051C355.125 101.005 358.355 103.308 361.987 105.013C364.744 106.306 367.686 106.681 370.629 105.888C374.426 104.865 377.305 102.76 378.205 98.667C376.839 94.5559 373.999 92.0807 370.08 91.0499C365.976 89.9718 362.172 90.6784 359.268 94.155C358.712 94.8208 358.151 95.4794 357.474 96.2805C355.91 94.958 355.476 93.5219 356 91.7979C358.042 90.2967 358.042 90.2967 363.084 90.5405C363.576 90.1544 364.201 89.7159 364.757 89.2001C365.012 88.9602 365.127 88.5695 365.42 88.0506C365.037 87.6026 364.731 86.9534 364.227 86.7186C363.199 86.2367 362.095 85.7982 360.978 85.6584C357.059 85.1656 354.002 86.8768 351.506 89.7286C349.892 91.5764 349.777 93.6744 350.887 95.812C351.302 96.599 351.838 97.3432 352.438 98.0051Z" fill="#555970" stroke="#555970"/>
<path d="M363.435 212.981C362.439 214.701 361.258 215.064 359.931 215.086C358.756 215.104 357.633 214.931 356.937 213.704C356.963 213.39 356.995 213.017 357.02 212.67C358.526 210.902 360.39 211.126 362.439 211.551C362.752 212.003 363.096 212.493 363.435 212.981ZM366.192 211.538V214.476C364.864 215.846 363.722 217.022 362.739 218.043V221.119C363.467 222.013 364.188 222.891 364.909 223.769C363.237 223.644 362.094 222.928 361.463 221.271C361.667 220.138 361.903 218.802 362.145 217.425C363.116 216.499 364.118 215.541 365.024 214.679C365.286 212.48 365.286 212.48 364.315 210.098C365.407 210.168 365.886 210.807 366.192 211.538ZM368.93 216.745C370.526 216.701 371.962 217.059 373.385 218.319C373.462 218.961 373.557 219.8 373.666 220.729C371.617 222.417 369.741 222.956 367.603 222.375C366.115 221.971 365.618 221.5 364.59 219.533C364.826 219.095 365.005 218.434 365.426 218.035C366.383 217.133 367.609 216.781 368.93 216.745ZM375.223 216.338C377.744 218.131 378.019 220.143 376.053 222.399C375.734 222.768 375.268 223.012 374.872 223.314C375.242 221.809 376.219 220.87 375.842 219.042C375.734 218.848 375.453 218.286 375.115 217.758C374.847 217.338 374.508 216.959 374.017 216.317C374.598 216.317 375.013 216.187 375.223 216.338ZM356.063 216.864C354.544 216.533 353.555 215.655 353.261 213.886C353.516 212.345 354.199 211.361 355.705 210.719C355.354 211.815 355.042 212.722 354.78 213.645C354.723 213.87 354.837 214.146 354.908 214.625C355.303 215.177 355.82 215.893 356.344 216.62C356.235 216.718 356.133 216.879 356.063 216.864ZM359.561 206.616C356.178 207.06 353.625 208.906 351.755 211.677C350.887 212.959 350.95 214.381 351.838 215.647C353.12 217.475 354.716 218.908 357.052 219.244C357.671 219.333 358.284 219.465 358.929 219.582C359.235 220.517 359.503 221.359 359.809 222.293C364.092 228.687 373.998 229.104 379.027 221.253C379.64 219.606 379.544 217.99 378.421 216.561C376.8 214.491 374.808 212.942 372.102 212.562C370.985 212.405 369.862 212.253 368.873 212.116C366.632 207.83 363.671 206.076 359.561 206.616Z" fill="#555970" stroke="#555970"/>
<path d="M460.475 284.077C460.354 284.017 460.182 283.935 460.182 283.931C460.577 283.039 460.98 282.153 461.305 281.451C461.318 279.71 460.545 278.581 459.537 277.555C458.56 276.561 457.609 275.544 456.646 274.538C455.752 274.24 454.954 273.817 454.54 272.912C455.554 272.954 456.282 273.496 456.869 274.291C460.482 276.306 461.535 277.482 462.741 280.894C462.594 282.361 461.847 283.444 460.475 284.077ZM458.765 281.796C457.118 283.352 455.018 283.17 453.11 282.468C449.612 281.178 446.523 279.122 443.881 276.462C443.019 275.593 443.051 275.469 443.013 273.166C443.453 272.876 443.932 272.433 444.5 272.225C445.866 271.718 447.315 271.835 448.636 272.309C452.287 273.619 455.446 275.759 458.19 278.487C459.071 279.361 459.295 280.463 458.765 281.796ZM448.425 282.883C448.604 282.999 448.776 283.114 448.961 283.234C448.463 283.485 448.451 283.177 448.425 282.883ZM446.797 282.149C447.417 282.082 447.914 282.316 448.317 282.787C447.691 282.864 447.123 282.787 446.797 282.149ZM440.983 277.902C440.026 276.876 439.183 275.734 439.228 274.159C439.394 273.015 440.013 272.181 441.404 271.395C441.015 272.724 440.74 273.656 440.523 274.409C441.047 276.771 442.719 278.016 444.142 279.456C444.991 280.317 446.236 280.801 446.67 282.06C444.289 281.342 442.604 279.643 440.983 277.902ZM454.342 272.782C454.31 272.739 454.284 272.712 454.271 272.692C454.291 272.715 454.31 272.746 454.342 272.782ZM449.619 267.805C445.763 266.539 442.291 267.444 439.343 270.233C438.698 270.843 438.162 271.569 437.626 272.188C437 274.21 437.128 275.695 438.155 277.005C442.145 282.078 447.117 285.716 453.442 287.319C456.518 288.099 459.295 287.308 461.707 285.359C462.779 284.492 463.635 283.354 464.496 282.439C464.579 281.575 464.694 280.943 464.681 280.312C464.675 279.81 464.522 279.31 464.413 278.702C460.769 273.386 455.739 269.82 449.619 267.805Z" fill="#555970" stroke="#555970"/>
<path d="M364.781 335.961C365.815 334.203 366.645 332.316 368.075 330.816C369.645 330.484 370.819 331.31 371.994 331.807C372.332 332.665 371.943 333.168 371.502 333.642C370.455 334.766 369.39 335.872 368.356 337.006C367.941 337.461 367.583 337.971 367.309 338.311C367.385 339.31 367.947 339.619 368.553 339.971C371.432 340.091 374.362 340.205 377.298 340.353C377.508 340.363 377.712 340.617 378.032 340.836V342.223C377.629 342.377 377.272 342.655 376.947 342.617C374.528 342.343 372.121 342.006 369.709 341.689C368.956 341.59 368.196 341.493 367.347 341.383C366.888 341.803 366.428 342.221 366.045 342.567C366.007 342.963 365.905 343.238 365.975 343.462C366.345 344.686 366.805 345.885 367.137 347.119C367.328 347.829 367.334 348.59 367.43 349.38C366.154 350.065 364.966 350.359 363.435 350.205C363.262 349.649 362.981 349.089 362.93 348.509C362.796 346.982 362.758 345.447 362.675 343.753C362.177 343.31 361.628 342.822 361.035 342.3C357.901 343.68 354.856 345.017 351.448 346.514C350.804 345.699 350.35 345.127 349.936 344.605C350.127 344.252 350.197 343.917 350.363 343.861C353.14 342.918 355.929 342.009 358.973 341.009C359.171 340.703 359.497 340.189 359.784 339.745C359.018 338.028 357.429 337.606 356.178 336.767C354.914 335.922 353.465 335.343 352.361 334.196C352.859 332.943 353.772 332.384 355.163 332.126C357.901 333.546 359.905 336.162 362.433 337.884C363.805 337.796 364.271 336.842 364.781 335.961ZM362.082 334.957C359.669 333.322 357.748 330.787 355.029 329.475C351.372 331.347 350.657 331.933 349.399 334.094C350.842 336.414 353.874 336.853 355.75 339.123C355.112 339.427 354.697 339.68 354.25 339.829C352.667 340.355 351.078 340.847 349.489 341.349C348.468 341.673 347.657 342.246 347.076 343.547C348.187 345.18 349.125 347.127 351.333 348.588C352.903 347.934 354.308 347.323 355.731 346.765C357.205 346.185 358.52 345.087 360.288 345.122C360.639 347.325 360.965 349.331 361.265 351.235C361.813 351.672 362.203 351.989 362.618 352.321C364.698 352.37 366.754 352.344 368.656 351.456C369.185 351.211 369.524 350.573 369.824 350.25C370.13 347.958 368.643 346.183 368.726 343.914C372.172 343.553 375.396 345.29 378.606 344.484C380.221 343.346 380.514 341.7 380.763 340.04C380.795 339.802 380.706 339.545 380.629 338.972C380.38 338.703 379.946 338.244 379.659 337.932C378.446 337.788 377.566 337.64 376.678 337.587C375.651 337.526 374.623 337.597 373.602 337.521C372.772 337.459 371.809 337.822 371.075 336.866C372.109 334.838 374.266 333.575 375.108 331.292C373.264 328.884 370.551 328.644 367.902 327.879C367.175 328.688 366.434 329.384 365.854 330.198C365.037 331.345 364.347 332.579 363.601 333.776C363.269 334.304 363.013 334.923 362.082 334.957Z" fill="#555970" stroke="#555970"/>
<path d="M194.93 216.66C194.948 216.667 194.967 216.674 194.98 216.682C194.974 216.665 194.967 216.646 194.955 216.629C194.942 216.621 194.923 216.613 194.904 216.605C194.911 216.623 194.923 216.641 194.93 216.66Z" fill="#555970" stroke="#555970"/>
<path d="M190.704 220.488C190.193 219.226 189.848 217.958 189.816 215.826C191.387 216.924 192.369 217.617 193.359 218.31C192.369 219.72 192.369 219.72 190.704 220.488ZM189.07 213.332C188.885 213.223 188.585 213.317 188.195 213.317C187.889 213.766 187.538 214.27 187.219 214.734C187.653 217.009 188.048 219.137 188.463 221.261C188.674 222.299 189.089 223.195 190.48 223.562C192.491 222.369 194.718 221.205 196.212 219.03C195.739 218.152 195.331 217.405 194.929 216.661C194.157 216.303 193.352 215.995 192.612 215.565C191.412 214.86 190.263 214.057 189.07 213.332Z" fill="#555970" stroke="#555970"/>
<path d="M535.273 218.863C534.794 218.36 534.2 217.741 533.454 216.962C534.047 216.478 534.5 216.108 535.273 215.482C536.173 216.287 536.728 216.786 537.021 217.043C536.964 218.538 536.364 218.84 535.273 218.863ZM535.113 213.553C533.479 214.499 531.82 215.2 531.232 217.198C532.413 218.919 533.722 220.434 535.432 221.509C536.492 221.145 537.423 220.824 538.355 220.503C538.751 219.758 539.147 219.011 539.594 218.164C538.426 216.299 537.002 214.752 535.113 213.553Z" fill="#555970" stroke="#555970"/>
<path d="M538.356 220.502C538.343 220.522 538.331 220.544 538.324 220.564C538.337 220.56 538.343 220.556 538.356 220.553C538.375 220.53 538.387 220.508 538.4 220.486C538.387 220.491 538.368 220.496 538.356 220.502Z" fill="#555970" stroke="#555970"/>
</svg>
