<svg width="339" height="477" viewBox="0 0 339 477" fill="none" xmlns="http://www.w3.org/2000/svg">
<path d="M85.4951 425.445L1.50001 375.9L1.50016 278.381L85.8821 229.223L169.687 278.186L85.6917 327.732M85.6917 327.732L85.6917 425.251M85.6917 327.732L1.50016 278.381" stroke="#555970" stroke-width="3" stroke-linecap="round"/>
<path d="M169.688 180.446L169.688 277.976L253.201 327.333L336.52 277.782L336.903 180.251L253.774 131.281L169.688 180.446ZM336.903 180.251L253.201 229.802M253.201 229.802L253.201 327.333M253.201 229.802L169.688 180.446" stroke="#555970" stroke-width="3" stroke-linecap="round"/>
<path d="M86.5627 327.51L86.5625 425.041L170.076 474.398L253.395 424.846L253.778 327.315L170.649 278.346L86.5627 327.51ZM253.778 327.315L170.076 376.867M170.076 376.867L170.076 474.398M170.076 376.867L86.5627 327.51" stroke="#555970" stroke-width="3" stroke-linecap="round" stroke-dasharray="9.29 9.29"/>
<path d="M86.5625 229.933L86.5625 131.281L170.944 82.123L254.749 131.086M86.5625 131.281L170.944 180.81" stroke="#555970" stroke-width="3" stroke-linecap="round"/>
<mask id="mask0_1_86168" style="mask-type:alpha" maskUnits="userSpaceOnUse" x="13" y="138" width="112" height="194">
<rect width="128.621" height="128.621" transform="matrix(0.866025 0.5 0 1 13.1465 138.346)" fill="#D9D9D9"/>
</mask>
<g mask="url(#mask0_1_86168)">
<path d="M54.917 280.366V209.49C47.8778 203.282 42.2504 195.545 38.0346 186.278C33.8188 177.011 31.7109 168.179 31.7109 159.783L40.9934 165.142C40.9934 172.556 43.0626 180.07 47.201 187.685C51.3394 195.299 56.6188 200.96 63.0391 204.667L74.6422 211.366C76.9628 212.705 79.1287 214.447 81.1399 216.591C83.1511 218.735 84.9689 221.213 86.5933 224.027L107.595 260.402L101.097 264.154L82.7643 232.401V296.443L73.4819 291.084V258.929L64.1994 253.569V285.725L54.917 280.366ZM68.8407 202.657C66.288 201.183 64.1028 198.872 62.2849 195.723C60.4671 192.575 59.5582 189.527 59.5582 186.579C59.5582 183.632 60.4671 181.633 62.2849 180.584C64.1028 179.534 66.288 179.746 68.8407 181.22C71.3933 182.694 73.5786 185.005 75.3964 188.154C77.2142 191.302 78.1231 194.35 78.1231 197.298C78.1231 200.245 77.2142 202.244 75.3964 203.293C73.5786 204.343 71.3933 204.131 68.8407 202.657Z" fill="#555970"/>
</g>
<path d="M165.265 43.437C162.712 44.9108 160.527 45.1229 158.709 44.0734C156.891 43.0239 155.982 41.0254 155.982 38.0778C155.982 35.1302 156.891 32.0822 158.709 28.9336C160.527 25.7851 162.712 23.4739 165.265 22.0002C167.818 20.5264 170.003 20.3142 171.821 21.3638C173.638 22.4133 174.547 24.4118 174.547 27.3594C174.547 30.3069 173.638 33.355 171.821 36.5035C170.003 39.6521 167.818 41.9632 165.265 43.437Z" fill="#555970"/>
<path d="M121.164 88.2363L130.551 113.09L143.66 100.103L134.273 75.2486L121.164 88.2363Z" fill="#555970"/>
<path d="M121.951 83.0664L123.973 88.4211L132.479 79.9944L130.456 74.6397L121.951 83.0664Z" fill="#555970"/>
<path d="M151.34 73.4479V137.223L160.623 131.863V99.708L169.905 94.3488V126.504L179.188 121.145V57.3702C183.055 56.6557 185.569 57.9955 186.73 61.3896C187.89 64.7838 188.47 68.6246 188.47 72.9119L197.752 67.5527C197.752 56.1197 194.852 48.6838 189.05 45.245C183.249 41.8062 175.32 42.9897 165.264 48.7955C155.208 54.6013 147.279 62.5731 141.478 72.711C135.676 82.8488 132.775 93.6342 132.775 105.067L142.058 99.708C142.058 95.4206 142.638 90.91 143.798 86.176C144.959 81.442 147.473 77.1993 151.34 73.4479Z" fill="#555970"/>
<path d="M186.379 73.359L203.624 67.5889L203.118 66.0791L185.874 71.8492L186.379 73.359Z" fill="#555970"/>
<path d="M261.142 95.6125C258.589 94.1387 256.404 91.8275 254.586 88.679C252.768 85.5305 251.859 82.4824 251.859 79.5348C251.859 76.5873 252.768 74.5887 254.586 73.5392C256.404 72.4897 258.589 72.7018 261.142 74.1756C263.694 75.6494 265.88 77.9606 267.698 81.1091C269.515 84.2576 270.424 87.3057 270.424 90.2533C270.424 93.2008 269.515 95.1994 267.698 96.2489C265.88 97.2984 263.694 97.0863 261.142 95.6125Z" fill="#555970"/>
<path d="M247.217 109.547V173.321L256.5 178.681V146.525L265.782 151.885V184.04L275.065 189.399V125.624C278.932 129.376 281.446 133.619 282.606 138.353C283.767 143.087 284.347 147.597 284.347 151.885L293.629 157.244C293.629 145.811 290.729 135.025 284.927 124.888C279.126 114.75 271.197 106.778 261.141 100.972C251.085 95.1663 243.156 93.9828 237.355 97.4216C231.553 100.86 228.652 108.296 228.652 119.729L237.935 125.089C237.935 120.801 238.515 116.96 239.675 113.566C240.836 110.172 243.35 108.832 247.217 109.547Z" fill="#555970"/>
<path d="M272.642 92.5398L249.883 77.4268L250.153 76.2578L251.952 77.5172C251.952 77.5172 253.482 70.3206 260.948 73.1992C266.921 75.5021 269.979 85.2167 270.759 89.2348L272.574 90.8588L272.642 92.5398Z" fill="#555970" stroke="#555970" stroke-width="1.89359"/>
<path d="M169.327 250.533C166.775 252.007 164.589 252.219 162.772 251.169C160.954 250.12 160.045 248.121 160.045 245.174C160.045 242.226 160.954 239.178 162.772 236.029C164.589 232.881 166.775 230.57 169.327 229.096C171.88 227.622 174.065 227.41 175.883 228.459C177.701 229.509 178.61 231.508 178.61 234.455C178.61 237.403 177.701 240.451 175.883 243.599C174.065 246.748 171.88 249.059 169.327 250.533Z" fill="#555970"/>
<path d="M155.403 280.544V344.318L164.685 338.959V306.804L173.968 301.445V333.6L183.25 328.241V264.466C187.118 263.751 189.632 265.091 190.792 268.485C191.952 271.88 192.532 275.72 192.532 280.008L201.815 274.648C201.815 263.215 198.914 255.78 193.113 252.341C187.311 248.902 179.382 250.085 169.326 255.891C159.27 261.697 151.342 269.669 145.54 279.807C139.739 289.945 136.838 300.73 136.838 312.163L146.12 306.804C146.12 302.516 146.7 298.006 147.861 293.272C149.021 288.538 151.535 284.295 155.403 280.544Z" fill="#555970"/>
</svg>
